<svg width="29" height="24" viewBox="0 0 29 24" fill="none" xmlns="http://www.w3.org/2000/svg">
<path fill-rule="evenodd" clip-rule="evenodd" d="M9.42866 1.90646C10.0549 1.30736 10.8293 0.827023 11.6992 0.498069C12.5691 0.169116 13.5142 -0.000751153 14.4702 2.49683e-06C16.4842 2.49683e-06 18.2889 0.738464 19.5118 1.90646C20.4657 1.84998 21.423 1.96441 22.3188 2.24198C23.2146 2.51954 24.0278 2.95374 24.7033 3.51508C25.3799 4.07516 25.9033 4.74938 26.238 5.49201C26.5727 6.23463 26.7108 7.02828 26.643 7.81908C27.3652 8.33853 27.9441 8.98075 28.3406 9.70215C28.737 10.4235 28.9416 11.2072 28.9405 12C28.9414 12.7929 28.7365 13.5766 28.3399 14.298C27.9432 15.0194 27.364 15.6616 26.6416 16.1809C26.7094 16.9717 26.5712 17.7654 26.2365 18.508C25.9018 19.2506 25.3784 19.9248 24.7018 20.4849C24.0264 21.046 23.2134 21.4801 22.3179 21.7576C21.4224 22.0352 20.4654 22.1498 19.5118 22.0935C18.8856 22.6926 18.1112 23.173 17.2413 23.5019C16.3714 23.8309 15.4263 24.0007 14.4702 24C13.5142 24.0007 12.5691 23.8309 11.6992 23.5019C10.8293 23.173 10.0549 22.6926 9.42866 22.0935C8.47493 22.1502 7.51767 22.0359 6.62189 21.7586C5.72611 21.4812 4.9128 21.0473 4.23719 20.4862C3.56037 19.9259 3.03685 19.2515 2.70215 18.5087C2.36745 17.7658 2.22942 16.9719 2.29743 16.1809C1.57527 15.6615 0.996335 15.0192 0.599925 14.2979C0.203515 13.5765 -0.00108877 12.7928 4.35717e-06 12C4.35717e-06 10.3298 0.89048 8.83323 2.29892 7.81908C2.23103 7.02827 2.36912 6.2346 2.70381 5.49197C3.03851 4.74933 3.56198 4.07511 4.23867 3.51508C4.91398 2.9539 5.72699 2.5198 6.6225 2.24224C7.51802 1.96468 8.47506 1.85016 9.42866 1.90646ZM19.8279 9.76738C19.917 9.66899 19.9814 9.55682 20.0174 9.43748C20.0535 9.31813 20.0604 9.19402 20.0377 9.07244C20.0151 8.95085 19.9634 8.83425 19.8856 8.72947C19.8078 8.6247 19.7056 8.53388 19.5849 8.46234C19.4642 8.3908 19.3275 8.33999 19.1828 8.3129C19.0381 8.2858 18.8883 8.28297 18.7423 8.30457C18.5962 8.32617 18.4568 8.37176 18.3323 8.43866C18.2078 8.50556 18.1007 8.59243 18.0173 8.69415L13.2147 14.2695L10.8044 12.2708C10.5934 12.1077 10.3144 12.0189 10.026 12.0232C9.73762 12.0274 9.46248 12.1243 9.25855 12.2934C9.05461 12.4625 8.93779 12.6907 8.9327 12.9298C8.92761 13.169 9.03465 13.4004 9.23127 13.5754L12.5706 16.3446C12.6848 16.4393 12.8226 16.5122 12.9742 16.5583C13.1259 16.6044 13.2878 16.6226 13.4488 16.6116C13.6098 16.6006 13.766 16.5607 13.9065 16.4946C14.047 16.4285 14.1684 16.3378 14.2625 16.2289L19.8279 9.76738Z" fill="url(#paint0_linear_1817_1714)"/>
<defs>
<linearGradient id="paint0_linear_1817_1714" x1="28.7773" y1="-4.05051" x2="-1.08125" y2="-2.84802" gradientUnits="userSpaceOnUse">
<stop stop-color="#0045FF"/>
<stop offset="1" stop-color="#00A3FF"/>
</linearGradient>
</defs>
</svg>
