<svg width="47" height="43" viewBox="0 0 47 43" fill="none" xmlns="http://www.w3.org/2000/svg">
<path d="M10.7315 12.2422C10.7256 15.2717 8.45859 17.5181 5.41727 17.5093C2.38184 17.5004 0.00589879 15.151 1.04684e-05 12.1479C-0.00587786 9.28622 2.47311 6.88378 5.41727 6.8985C8.33788 6.91028 10.7344 9.32155 10.7315 12.2422Z" fill="white"/>
<path d="M46.0655 18.5311C46.0125 21.3428 43.5718 23.6657 40.7336 23.601C37.7836 23.5362 35.3929 21.1073 35.4341 18.2102C35.4753 15.3897 37.9514 13.052 40.8602 13.0903C43.8044 13.1286 46.1214 15.5487 46.0655 18.5282V18.5311Z" fill="white"/>
<path d="M21.7957 28.0124C18.8633 27.9653 16.6228 25.6247 16.6788 22.6687C16.7318 19.7775 19.0841 17.5518 22.0695 17.5665C24.8576 17.5812 27.2925 20.0484 27.2365 22.8012C27.1776 25.7336 24.7487 28.0595 21.7987 28.0124H21.7957Z" fill="white"/>
<path d="M37.6881 26.3074C37.7647 26.166 37.9178 26.0777 38.0797 26.0865C38.8099 26.1248 39.2338 26.3721 39.2544 27.3025C39.278 28.4919 40.123 29.3133 41.0474 29.9463C42.1162 30.6794 42.231 31.6157 41.9071 32.7462C41.2476 35.025 38.8482 36.5324 36.5223 36.1114C34.0374 35.6639 32.4711 33.7149 32.6212 31.2977C32.6625 30.6588 32.845 30.2673 33.5163 29.9876C35.9187 28.9865 36.5223 28.4272 37.6881 26.3074Z" fill="white"/>
<path d="M30.095 8.91382C28.0547 8.92266 26.3147 7.24743 26.2971 5.25423C26.2764 3.17565 28.0577 1.42387 30.201 1.41798C32.1765 1.4121 33.8636 3.10205 33.8606 5.08052C33.8577 7.17677 32.1589 8.90499 30.098 8.91382H30.095Z" fill="white"/>
<path d="M33.4807 15.0396C33.4866 17.1034 31.9085 18.7374 29.8976 18.7522C27.9044 18.7669 26.3057 17.1917 26.2969 15.2015C26.2881 13.17 27.9044 11.5625 29.9447 11.5743C31.9497 11.5861 33.4718 13.0788 33.4777 15.0396H33.4807Z" fill="white"/>
<path d="M18.2248 15.5298C17.4711 16.1098 16.7351 16.6751 16.002 17.2404C15.8106 17.3876 15.5515 17.3994 15.3484 17.2728C14.6506 16.837 13.9057 16.3719 13.1609 15.9067C12.943 15.7712 12.8458 15.5063 12.9224 15.2619C13.1491 14.5465 13.417 13.8252 13.5053 13.0862C13.5907 12.3825 13.4965 11.6553 13.4435 11.0194C13.4229 10.7868 13.5524 10.566 13.7644 10.4659C15.0245 9.8682 16.264 9.28231 17.5035 8.69348C18.1954 8.57865 18.3514 9.03206 18.2543 9.77987C18.1306 10.7191 18.0658 11.6818 18.1188 12.6269C18.163 13.3865 18.3338 14.1402 18.4751 14.8733C18.5222 15.1206 18.425 15.3767 18.2248 15.5328V15.5298Z" fill="white"/>
<path d="M11.3229 18.7346C13.1748 18.714 14.588 20.1125 14.6057 21.9879C14.6233 23.7308 13.1777 25.1941 11.4054 25.2294C9.55937 25.2677 8.07256 23.8545 8.0549 22.038C8.03429 20.2508 9.51815 18.7552 11.3229 18.7346Z" fill="white"/>
<path d="M16.2357 4.23834C16.2357 5.98423 14.6724 7.45926 12.847 7.43276C11.1806 7.40921 9.79979 5.99012 9.80274 4.30017C9.80274 2.58961 11.2365 1.12931 12.9324 1.10575C14.7195 1.0822 16.2357 2.51895 16.2387 4.23834H16.2357Z" fill="white"/>
<path d="M23.7236 32.3387C23.7236 30.5722 25.1045 29.1943 26.8592 29.2032C28.5521 29.2149 29.9771 30.6134 29.9712 32.2563C29.9623 34.0139 28.4844 35.4772 26.7355 35.4595C25.025 35.4418 23.7207 34.0934 23.7207 32.3387H23.7236Z" fill="white"/>
<path d="M36.3187 11.9423C36.0361 12.0777 35.7005 12.0159 35.4797 11.7922C35.1323 11.433 34.7377 11.0296 34.3874 10.5939C34.2078 10.3701 34.1106 9.99033 34.1371 9.69885C34.3314 7.51134 36.8752 5.68596 39.0392 6.15114C40.2021 6.40139 41.1383 7.45246 41.156 8.52413C41.1707 9.59581 40.3699 10.3142 39.0951 10.7205C38.1559 11.0208 37.2697 11.4889 36.3187 11.9423Z" fill="white"/>
<path d="M29.7769 24.4844C29.8976 23.8014 29.9476 23.1066 29.9947 22.4118C30.0595 21.4726 30.5953 21.2635 31.9997 21.4166C33.3687 21.5697 34.6848 22.5884 34.9674 23.7131C35.256 24.8642 34.7407 26.1214 33.672 26.881C32.4531 27.7436 31.1665 27.7701 29.9741 26.9988C29.4383 26.6513 29.2675 26.3069 29.4942 25.6356C29.6208 25.2617 29.7062 24.876 29.7739 24.4844H29.7769Z" fill="white"/>
<path d="M18.6606 2.95005C18.6871 1.33665 20.0237 0 21.6106 0C23.2299 0 24.4841 1.23949 24.4782 2.83817C24.4723 4.51046 23.1121 5.93838 21.5341 5.92954C19.903 5.92366 18.6341 4.60173 18.6606 2.94711V2.95005Z" fill="white"/>
<path d="M25.3107 11.3682C25.3107 11.8098 25.3431 12.2515 25.3018 12.6901C25.1958 13.8442 24.2272 14.7157 23.0819 14.7187C21.8689 14.7216 20.9003 13.8354 20.8414 12.6136C20.8002 11.7333 20.7796 10.85 20.8149 9.96973C20.865 8.76556 21.8689 7.80871 23.0172 7.79693C24.1065 7.7881 25.2047 8.795 25.3048 9.9344C25.346 10.4084 25.3107 10.8883 25.3107 11.3653V11.3682Z" fill="white"/>
<path d="M33.691 39.5476C33.691 39.9863 33.7175 40.4279 33.6851 40.8636C33.6056 41.9736 32.69 42.8568 31.6124 42.8951C30.4995 42.9334 29.4632 42.1679 29.3513 41.0727C29.2512 40.0952 29.2541 39.0942 29.3366 38.1138C29.4337 36.9626 30.5142 36.0617 31.5741 36.1029C32.7341 36.1471 33.6321 37.0892 33.688 38.3405C33.7057 38.7409 33.688 39.1442 33.688 39.5476H33.691Z" fill="white"/>
<path d="M45.767 28.1852C44.8808 28.7887 43.6884 28.668 42.9288 27.9114C42.814 27.7965 42.6933 27.6817 42.5638 27.564C41.7659 26.8338 41.9514 26.2597 42.9524 25.8122C43.3469 25.6355 43.7179 25.3735 44.0565 25.0967C44.7837 24.502 45.5315 24.2341 46.3382 24.9083C47.0595 25.5089 47.2568 26.7484 46.6002 27.5051C46.4118 27.7229 46.1085 27.9555 45.77 28.1852H45.767Z" fill="white"/>
</svg>
