<svg width="433" height="601" viewBox="0 0 433 601" fill="none" xmlns="http://www.w3.org/2000/svg">
<g clip-path="url(#clip0_1072_2530)">
<path d="M11.9648 6.52539H383.967C407.996 6.52539 427.477 26.0051 427.477 50.0345V591.723" stroke="#00A3FF" stroke-width="2.17545" stroke-dasharray="4.35 4.35"/>
<path d="M13.0527 7.0205C13.0527 3.41609 10.1308 0.494141 6.52636 0.494141C2.92195 0.494141 0 3.41609 0 7.0205C0 10.6249 2.92195 13.5469 6.52636 13.5469C10.1308 13.5469 13.0527 10.6249 13.0527 7.0205Z" fill="#00A3FF"/>
<path d="M9.13906 7.0207C9.13906 5.57894 7.97028 4.41016 6.52851 4.41016C5.08675 4.41016 3.91797 5.57894 3.91797 7.0207C3.91797 8.46247 5.08675 9.63125 6.52851 9.63125C7.97028 9.63125 9.13906 8.46247 9.13906 7.0207Z" fill="#FBFCFD"/>
<path d="M430.679 594.391H424.272C422.757 594.391 422.059 596.276 423.21 597.261L426.414 600.007C427.025 600.531 427.926 600.531 428.537 600.007L431.74 597.261C432.891 596.276 432.194 594.391 430.679 594.391Z" fill="#00A3FF"/>
</g>
<defs>
<clipPath id="clip0_1072_2530">
<rect width="432.915" height="600.425" fill="white"/>
</clipPath>
</defs>
</svg>
