<svg width="50" height="50" viewBox="0 0 50 50" fill="none" xmlns="http://www.w3.org/2000/svg">
<path d="M39.1741 0H10C4.47715 0 0 4.47715 0 10V39.0718C0 44.5946 4.47716 49.0718 10 49.0718H39.1741C44.697 49.0718 49.1741 44.5946 49.1741 39.0718V10C49.1741 4.47715 44.697 0 39.1741 0Z" fill="url(#paint0_linear_1445_2968)"/>
<path d="M27.0597 22.0629V9.69922H39.4492V22.0629H27.0597Z" fill="url(#paint1_linear_1445_2968)" stroke="white" stroke-width="1.4448" stroke-linecap="round" stroke-linejoin="round"/>
<path d="M9.71205 22.0629V9.69922H22.1016V22.0629H9.71205Z" fill="url(#paint2_linear_1445_2968)" stroke="white" stroke-width="1.4448" stroke-linecap="round" stroke-linejoin="round"/>
<path d="M9.71205 39.3735V27.0098H22.1016V39.3735H9.71205Z" fill="url(#paint3_linear_1445_2968)" stroke="white" stroke-width="1.4448" stroke-linecap="round" stroke-linejoin="round"/>
<path d="M39.4492 33.1916H27.0597H39.4492ZM33.2545 39.3735V27.0098V39.3735Z" fill="url(#paint4_linear_1445_2968)"/>
<path d="M39.4492 33.1916H27.0597M33.2545 39.3735V27.0098" stroke="white" stroke-width="1.4448" stroke-linecap="round" stroke-linejoin="round"/>
<defs>
<linearGradient id="paint0_linear_1445_2968" x1="48.8969" y1="-8.28191" x2="-1.86263" y2="-6.58311" gradientUnits="userSpaceOnUse">
<stop stop-color="#0045FF"/>
<stop offset="1" stop-color="#00A3FF"/>
</linearGradient>
<linearGradient id="paint1_linear_1445_2968" x1="41.5402" y1="21.9933" x2="41.1149" y2="9.23078" gradientUnits="userSpaceOnUse">
<stop stop-color="#0045FF"/>
<stop offset="1" stop-color="#00A3FF"/>
</linearGradient>
<linearGradient id="paint2_linear_1445_2968" x1="24.1926" y1="21.9933" x2="23.7672" y2="9.23078" gradientUnits="userSpaceOnUse">
<stop stop-color="#0045FF"/>
<stop offset="1" stop-color="#00A3FF"/>
</linearGradient>
<linearGradient id="paint3_linear_1445_2968" x1="24.1926" y1="39.3038" x2="23.7672" y2="26.5413" gradientUnits="userSpaceOnUse">
<stop stop-color="#0045FF"/>
<stop offset="1" stop-color="#00A3FF"/>
</linearGradient>
<linearGradient id="paint4_linear_1445_2968" x1="41.5402" y1="39.3038" x2="41.1149" y2="26.5413" gradientUnits="userSpaceOnUse">
<stop stop-color="#0045FF"/>
<stop offset="1" stop-color="#00A3FF"/>
</linearGradient>
</defs>
</svg>
