<svg width="27" height="26" viewBox="0 0 27 26" fill="none" xmlns="http://www.w3.org/2000/svg">
<g clip-path="url(#clip0_1484_3793)">
<path fill-rule="evenodd" clip-rule="evenodd" d="M10.964 0.247421C11.785 0.0849992 12.6331 0 13.5 0C14.3669 0 15.215 0.0849992 16.036 0.247421C16.5778 0.354602 16.9301 0.880693 16.8229 1.42248C16.7157 1.96426 16.1897 2.31658 15.6479 2.2094C14.954 2.07213 14.2359 2 13.5 2C12.7641 2 12.046 2.07213 11.3521 2.2094C10.8103 2.31658 10.2842 1.96426 10.1771 1.42248C10.0699 0.880693 10.4222 0.354602 10.964 0.247421ZM19.3364 2.4649C19.6437 2.00596 20.2648 1.883 20.7237 2.19025C22.1409 3.13906 23.3609 4.35905 24.3098 5.77629C24.617 6.23522 24.494 6.85633 24.0351 7.16358C23.5762 7.47083 22.9551 7.34786 22.6478 6.88893C21.8444 5.68893 20.8111 4.65556 19.6111 3.85218C19.1521 3.54494 19.0292 2.92383 19.3364 2.4649ZM7.66358 2.4649C7.97083 2.92383 7.84786 3.54494 7.38893 3.85218C6.18893 4.65556 5.15556 5.68894 4.35218 6.88893C4.04494 7.34786 3.42383 7.47083 2.9649 7.16358C2.50596 6.85633 2.383 6.23522 2.69025 5.77629C3.63906 4.35906 4.85905 3.13906 6.27629 2.19025C6.73522 1.883 7.35633 2.00596 7.66358 2.4649ZM1.92248 9.67707C2.46426 9.78425 2.81658 10.3103 2.7094 10.8521C2.57213 11.546 2.5 12.2641 2.5 13C2.5 13.7359 2.57213 14.454 2.7094 15.1479C2.81658 15.6897 2.46426 16.2158 1.92248 16.3229C1.38069 16.4301 0.854602 16.0778 0.747421 15.536C0.584999 14.715 0.5 13.8669 0.5 13C0.5 12.1331 0.584999 11.285 0.747421 10.464C0.854602 9.9222 1.38069 9.56989 1.92248 9.67707ZM25.0775 9.67707C25.6193 9.56989 26.1454 9.9222 26.2526 10.464C26.415 11.285 26.5 12.1331 26.5 13C26.5 13.8669 26.415 14.715 26.2526 15.536C26.1454 16.0778 25.6193 16.4301 25.0775 16.3229C24.5357 16.2157 24.1834 15.6897 24.2906 15.1479C24.4279 14.454 24.5 13.7359 24.5 13C24.5 12.2641 24.4279 11.546 24.2906 10.8521C24.1834 10.3103 24.5357 9.78425 25.0775 9.67707ZM24.0351 18.8364C24.494 19.1437 24.617 19.7648 24.3098 20.2237C23.3609 21.6409 22.1409 22.8609 20.7237 23.8098C20.2648 24.117 19.6437 23.994 19.3364 23.5351C19.0292 23.0762 19.1521 22.4551 19.6111 22.1478C20.8111 21.3444 21.8444 20.3111 22.6478 19.1111C22.9551 18.6521 23.5762 18.5292 24.0351 18.8364ZM2.9649 18.8364C3.42383 18.5292 4.04494 18.6521 4.35218 19.1111C5.15556 20.3111 6.18894 21.3444 7.38893 22.1478C7.84786 22.4551 7.97083 23.0762 7.66358 23.5351C7.35633 23.994 6.73522 24.117 6.27629 23.8098C4.85906 22.8609 3.63906 21.6409 2.69025 20.2237C2.383 19.7648 2.50596 19.1437 2.9649 18.8364ZM10.1771 24.5775C10.2843 24.0357 10.8103 23.6834 11.3521 23.7906C12.046 23.9279 12.7641 24 13.5 24C14.2359 24 14.954 23.9279 15.6479 23.7906C16.1897 23.6834 16.7158 24.0357 16.8229 24.5775C16.9301 25.1193 16.5778 25.6454 16.036 25.7526C15.215 25.915 14.3669 26 13.5 26C12.6331 26 11.785 25.915 10.964 25.7526C10.4222 25.6454 10.0699 25.1193 10.1771 24.5775Z" fill="url(#paint0_linear_1484_3793)"/>
<path d="M13.5 19C16.8137 19 19.5 16.3137 19.5 13C19.5 9.68629 16.8137 7 13.5 7C10.1863 7 7.5 9.68629 7.5 13C7.5 16.3137 10.1863 19 13.5 19Z" fill="url(#paint1_linear_1484_3793)"/>
</g>
<defs>
<linearGradient id="paint0_linear_1484_3793" x1="26.3534" y1="-4.38805" x2="-0.484958" y2="-3.49171" gradientUnits="userSpaceOnUse">
<stop stop-color="#0045FF"/>
<stop offset="1" stop-color="#00A3FF"/>
</linearGradient>
<linearGradient id="paint1_linear_1484_3793" x1="19.4324" y1="4.97474" x2="7.0454" y2="5.38844" gradientUnits="userSpaceOnUse">
<stop stop-color="#0045FF"/>
<stop offset="1" stop-color="#00A3FF"/>
</linearGradient>
<clipPath id="clip0_1484_3793">
<rect width="27" height="26" fill="white"/>
</clipPath>
</defs>
</svg>
