<svg width="30" height="31" viewBox="0 0 30 31" fill="none" xmlns="http://www.w3.org/2000/svg">
<path d="M8.59019 12.6148L8.17619 12.8428C8.09602 12.885 8.02529 12.9431 7.96834 13.0136C7.91139 13.084 7.86942 13.1654 7.84499 13.2526C7.82055 13.3399 7.81418 13.4312 7.82625 13.521C7.83832 13.6108 7.86859 13.6971 7.91519 13.7748L9.0602 15.6748C9.15991 15.8333 9.31656 15.9475 9.49791 15.994C9.67926 16.0405 9.87153 16.0158 10.0352 15.9248L10.4532 15.6938C10.581 15.627 10.7252 15.5978 10.8689 15.6097C11.0126 15.6216 11.1501 15.674 11.2652 15.7608C11.6778 16.0641 12.127 16.3141 12.6022 16.5048C12.7352 16.552 12.8509 16.6382 12.9341 16.7522C13.0172 16.8663 13.064 17.0028 13.0682 17.1438V17.6008C13.0732 17.7856 13.151 17.9609 13.2848 18.0885C13.4186 18.2161 13.5974 18.2856 13.7822 18.2818H16.0722C16.2572 18.2856 16.4361 18.216 16.5699 18.0882C16.7037 17.9604 16.7815 17.7848 16.7862 17.5998V17.1428C16.7904 17.0018 16.8371 16.8653 16.9203 16.7512C17.0035 16.6372 17.1192 16.551 17.2522 16.5038C17.727 16.3137 18.1758 16.0644 18.5882 15.7618C18.7033 15.675 18.8407 15.6226 18.9845 15.6107C19.1282 15.5988 19.2724 15.628 19.4002 15.6948L19.8182 15.9258C19.9819 16.0168 20.1741 16.0415 20.3555 15.995C20.5368 15.9485 20.6935 15.8343 20.7932 15.6758L21.9382 13.7758C21.9847 13.6984 22.015 13.6122 22.0272 13.5227C22.0394 13.4331 22.0333 13.342 22.0092 13.2549C21.985 13.1678 21.9434 13.0865 21.8869 13.016C21.8303 12.9455 21.76 12.8873 21.6802 12.8448L21.2662 12.6168C21.1469 12.5551 21.0494 12.4585 20.9865 12.3398C20.9236 12.2212 20.8984 12.0862 20.9142 11.9528C20.9894 11.4345 20.9894 10.9081 20.9142 10.3898C20.8984 10.2565 20.9236 10.1215 20.9865 10.0028C21.0494 9.8842 21.1469 9.78756 21.2662 9.72584L21.6802 9.49784C21.7604 9.45565 21.8311 9.39755 21.888 9.32709C21.945 9.25663 21.987 9.17529 22.0114 9.08804C22.0358 9.0008 22.0422 8.90949 22.0301 8.8197C22.0181 8.72991 21.9878 8.64353 21.9412 8.56584L20.7962 6.66584C20.6965 6.50739 20.5398 6.39317 20.3585 6.34667C20.1771 6.30017 19.9849 6.32492 19.8212 6.41584L19.4032 6.64684C19.2754 6.71366 19.1312 6.74284 18.9875 6.73098C18.8437 6.71912 18.7063 6.66671 18.5912 6.57984C18.1784 6.27611 17.7288 6.02579 17.2532 5.83484C17.1202 5.78772 17.0045 5.70149 16.9213 5.58745C16.8381 5.47342 16.7914 5.33691 16.7872 5.19584V4.73884C16.7812 4.5544 16.7026 4.3798 16.5685 4.25301C16.4344 4.12623 16.2557 4.05752 16.0712 4.06184H13.7812C13.5962 4.05808 13.4173 4.12771 13.2835 4.2555C13.1497 4.3833 13.0719 4.55887 13.0672 4.74384V5.20084C13.063 5.34191 13.0162 5.47842 12.9331 5.59245C12.8499 5.70649 12.7342 5.79272 12.6012 5.83984C12.1264 6.03001 11.6776 6.27931 11.2652 6.58184C11.1501 6.66871 11.0126 6.72112 10.8689 6.73298C10.7252 6.74484 10.581 6.71566 10.4532 6.64884L10.0352 6.41784C9.87153 6.32692 9.67926 6.30217 9.49791 6.34867C9.31656 6.39517 9.15991 6.50939 9.0602 6.66784L7.9182 8.56184C7.87164 8.63931 7.84134 8.72544 7.82914 8.815C7.81694 8.90455 7.8231 8.99565 7.84723 9.08275C7.87137 9.16985 7.91298 9.25113 7.96954 9.32163C8.02609 9.39213 8.09641 9.45038 8.17619 9.49284L8.59019 9.72084C8.70945 9.78257 8.80704 9.8792 8.86993 9.99784C8.93283 10.1165 8.95804 10.2515 8.9422 10.3848C8.86703 10.9031 8.86703 11.4295 8.9422 11.9478C8.95868 12.0817 8.93378 12.2173 8.87085 12.3366C8.80792 12.4558 8.70997 12.5529 8.59019 12.6148ZM14.9272 8.12384C15.5296 8.12384 16.1186 8.30248 16.6195 8.63718C17.1204 8.97188 17.5108 9.4476 17.7413 10.0042C17.9719 10.5608 18.0322 11.1732 17.9147 11.7641C17.7971 12.3549 17.507 12.8977 17.081 13.3237C16.6551 13.7497 16.1123 14.0398 15.5214 14.1573C14.9306 14.2748 14.3181 14.2145 13.7615 13.984C13.205 13.7534 12.7292 13.363 12.3945 12.8621C12.0598 12.3612 11.8812 11.7723 11.8812 11.1698C11.8811 10.7698 11.9597 10.3737 12.1127 10.0041C12.2656 9.6345 12.4899 9.29864 12.7726 9.0157C13.0554 8.73276 13.3911 8.50828 13.7606 8.35508C14.1301 8.20189 14.5262 8.12297 14.9262 8.12284L14.9272 8.12384Z" fill="white"/>
<path d="M13.9132 30.4608V23.3528C13.9131 23.2181 13.8595 23.0889 13.7642 22.9938L12.7493 21.9788L12.0312 22.6968L12.8983 23.5638V30.4638L13.9132 30.4608Z" fill="white"/>
<path d="M10.3586 30.4608V26.9068C10.3585 26.7722 10.3049 26.643 10.2096 26.5478L9.19456 25.5328L8.47656 26.2508L9.34356 27.1178V30.4618L10.3586 30.4608Z" fill="white"/>
<path d="M16.0943 22.9939C15.999 23.089 15.9454 23.2182 15.9453 23.3529V30.4599H16.9603V23.5599L17.8273 22.6929L17.1093 21.9749L16.0943 22.9939Z" fill="white"/>
<path d="M10.3589 22.3379C11.2001 22.3379 11.8819 21.656 11.8819 20.8149C11.8819 19.9737 11.2001 19.2919 10.3589 19.2919C9.51781 19.2919 8.83594 19.9737 8.83594 20.8149C8.83594 21.656 9.51781 22.3379 10.3589 22.3379Z" fill="white"/>
<path d="M6.80425 25.8918C7.64538 25.8918 8.32725 25.21 8.32725 24.3688C8.32725 23.5277 7.64538 22.8458 6.80425 22.8458C5.96312 22.8458 5.28125 23.5277 5.28125 24.3688C5.28125 25.21 5.96312 25.8918 6.80425 25.8918Z" fill="white"/>
<path d="M19.4996 22.3379C20.3407 22.3379 21.0226 21.656 21.0226 20.8149C21.0226 19.9737 20.3407 19.2919 19.4996 19.2919C18.6584 19.2919 17.9766 19.9737 17.9766 20.8149C17.9766 21.656 18.6584 22.3379 19.4996 22.3379Z" fill="white"/>
<path d="M23.0543 25.8918C23.8954 25.8918 24.5773 25.21 24.5773 24.3688C24.5773 23.5277 23.8954 22.8458 23.0543 22.8458C22.2131 22.8458 21.5312 23.5277 21.5312 24.3688C21.5312 25.21 22.2131 25.8918 23.0543 25.8918Z" fill="white"/>
<path d="M20.5111 27.1169L21.3781 26.2499L20.6601 25.5319L19.6451 26.5469C19.5498 26.642 19.4962 26.7712 19.4961 26.9059V30.4599H20.5111V27.1169Z" fill="white"/>
<path d="M28.007 8.64785C26.9755 6.22216 25.2895 4.13126 23.1376 2.60896C20.9857 1.08666 18.4528 0.192996 15.822 0.0279005C13.1913 -0.137195 10.5665 0.432791 8.24119 1.67412C5.91586 2.91544 3.9817 4.77916 2.655 7.05685L0 8.50185L1.577 9.33585C0.785836 11.5026 0.533556 13.8294 0.841912 16.1154C1.15027 18.4014 2.01001 20.5781 3.347 22.4578L4.173 21.8688C2.94448 20.1424 2.14994 18.1454 1.85664 16.0468C1.56334 13.9483 1.7799 11.81 2.488 9.81285L4.004 10.6128L3.669 7.33485C4.9254 5.27716 6.72162 3.60309 8.86257 2.49449C11.0035 1.38589 13.4073 0.885147 15.8128 1.04666C18.2183 1.20818 20.5336 2.02577 22.5071 3.41063C24.4807 4.79549 26.037 6.69466 27.007 8.90185L25.375 9.32585L27.853 11.5378C28.2194 13.3159 28.2157 15.1504 27.842 16.927C27.4683 18.7035 26.7327 20.3841 25.681 21.8638L26.507 22.4528C27.6343 20.8675 28.4246 19.0678 28.829 17.165C29.2334 15.2622 29.2432 13.2966 28.858 11.3898L29.99 8.12685L28.007 8.64785Z" fill="white"/>
</svg>
