<svg width="30" height="30" viewBox="0 0 30 30" fill="none" xmlns="http://www.w3.org/2000/svg">
<path d="M26.276 6.05824C26.8327 5.62425 27.2399 5.02716 27.4407 4.35042C27.6415 3.67368 27.6259 2.95112 27.3959 2.28372C27.166 1.61632 26.7333 1.03744 26.1582 0.627994C25.5832 0.218544 24.8946 -0.00101533 24.1888 3.52997e-06C23.4829 0.00102239 22.7949 0.222568 22.2211 0.633677C21.6473 1.04478 21.2162 1.62491 20.9882 2.29297C20.7602 2.96103 20.7466 3.68363 20.9493 4.35979C21.1521 5.03595 21.561 5.63186 22.119 6.06424C21.8281 6.15629 21.5457 6.27339 21.275 6.41424C19.4548 5.08003 17.2568 4.3607 15 4.3607C12.7432 4.3607 10.5452 5.08003 8.725 6.41424C8.45436 6.27331 8.17196 6.1562 7.881 6.06424C8.43897 5.63186 8.84791 5.03595 9.05065 4.35979C9.2534 3.68363 9.23981 2.96103 9.0118 2.29297C8.78379 1.62491 8.35275 1.04478 7.77892 0.633677C7.20509 0.222568 6.51715 0.00102239 5.81125 3.52997e-06C5.10535 -0.00101533 4.41677 0.218544 3.84176 0.627994C3.26674 1.03744 2.83403 1.61632 2.60409 2.28372C2.37415 2.95112 2.35848 3.67368 2.55927 4.35042C2.76006 5.02716 3.16728 5.62425 3.724 6.05824C2.64481 6.39943 1.70221 7.07524 1.0327 7.98783C0.36318 8.90041 0.00149116 10.0024 0 11.1342V15.9732C0.000793871 16.6146 0.255907 17.2294 0.709386 17.6829C1.16286 18.1363 1.77768 18.3915 2.419 18.3922V28.0692C2.41709 28.4634 2.53607 28.8486 2.75991 29.173C2.98375 29.4974 3.30168 29.7454 3.67082 29.8835C4.03997 30.0215 4.44258 30.0431 4.82438 29.9453C5.20617 29.8474 5.54877 29.6349 5.806 29.3362C6.06323 29.6349 6.40583 29.8474 6.78762 29.9453C7.16942 30.0431 7.57203 30.0215 7.94118 29.8835C8.31032 29.7454 8.62825 29.4974 8.85209 29.173C9.07593 28.8486 9.19491 28.4634 9.193 28.0692V23.9202C10.9192 25.049 12.937 25.6501 14.9995 25.6501C17.062 25.6501 19.0798 25.049 20.806 23.9202V28.0692C20.8041 28.4634 20.9231 28.8486 21.1469 29.173C21.3707 29.4974 21.6887 29.7454 22.0578 29.8835C22.427 30.0215 22.8296 30.0431 23.2114 29.9453C23.5932 29.8474 23.9358 29.6349 24.193 29.3362C24.4502 29.6349 24.7928 29.8474 25.1746 29.9453C25.5564 30.0431 25.959 30.0215 26.3282 29.8835C26.6973 29.7454 27.0153 29.4974 27.2391 29.173C27.4629 28.8486 27.5819 28.4634 27.58 28.0692V18.3922C28.2215 18.3917 28.8366 18.1367 29.2903 17.6832C29.744 17.2297 29.9992 16.6147 30 15.9732V11.1342C29.9985 10.0024 29.6368 8.90041 28.9673 7.98783C28.2978 7.07524 27.3552 6.39943 26.276 6.05824ZM21.776 3.39224C21.776 2.91381 21.9179 2.44612 22.1837 2.04832C22.4495 1.65052 22.8273 1.34047 23.2693 1.15738C23.7113 0.974291 24.1977 0.926387 24.6669 1.01972C25.1362 1.11306 25.5672 1.34345 25.9055 1.68175C26.2438 2.02006 26.4742 2.45108 26.5675 2.92032C26.6609 3.38956 26.613 3.87594 26.4299 4.31796C26.2468 4.75997 25.9367 5.13777 25.5389 5.40357C25.1411 5.66937 24.6734 5.81124 24.195 5.81124C23.5533 5.81098 22.938 5.5561 22.4841 5.10256C22.0302 4.64903 21.7748 4.03391 21.774 3.39224H21.776ZM23.37 19.8442H19.945C20.4717 18.4508 20.7594 16.9785 20.796 15.4892H24.653C24.5791 17.0228 24.1384 18.5162 23.368 19.8442H23.37ZM13.308 5.48524C12.128 6.52373 11.1655 7.78569 10.476 9.19824H7.276C8.74511 7.24267 10.9003 5.91603 13.308 5.48524ZM15 24.6052C13.5618 23.6427 12.3825 22.3411 11.566 20.8152H18.433C17.6168 22.341 16.4378 23.6426 15 24.6052ZM11.1 19.8482C10.5253 18.4661 10.211 16.9896 10.173 15.4932H19.829C19.7908 16.9896 19.4765 18.466 18.902 19.8482H11.1ZM10.173 14.5252C10.2112 13.0289 10.5255 11.5525 11.1 10.1702H18.9C19.4747 11.5524 19.789 13.0289 19.827 14.5252H10.173ZM11.568 9.20224C12.383 7.67406 13.5617 6.37002 15 5.40524C16.4382 6.36781 17.6175 7.66938 18.434 9.19524L11.568 9.20224ZM6.633 10.1702H10.056C9.5293 11.5637 9.2416 13.036 9.205 14.5252H5.347C5.42029 12.9903 5.86097 11.4955 6.632 10.1662L6.633 10.1702ZM5.347 15.4892H9.2C9.23612 16.9785 9.52384 18.4509 10.051 19.8442H6.632C5.86119 18.5164 5.4205 17.0229 5.347 15.4892ZM10.476 20.8122C11.1655 22.2248 12.128 23.4868 13.308 24.5252C10.9003 24.0946 8.74504 22.7679 7.276 20.8122H10.476ZM19.523 20.8122H22.723C21.254 22.7679 19.0987 24.0946 16.691 24.5252C17.8714 23.4866 18.8343 22.2242 19.524 20.8112L19.523 20.8122ZM20.795 14.5222C20.7589 13.033 20.4712 11.5606 19.944 10.1672H23.367C24.1374 11.4953 24.5781 12.9887 24.652 14.5222H20.795ZM19.523 9.19924C18.8339 7.78642 17.8717 6.52411 16.692 5.48524C19.0997 5.91594 21.255 7.2426 22.724 9.19824L19.523 9.19924ZM3.387 3.39224C3.387 2.91381 3.52887 2.44612 3.79467 2.04832C4.06048 1.65052 4.43827 1.34047 4.88029 1.15738C5.3223 0.974291 5.80868 0.926387 6.27792 1.01972C6.74716 1.11306 7.17819 1.34345 7.51649 1.68175C7.85479 2.02006 8.08518 2.45108 8.17852 2.92032C8.27186 3.38956 8.22395 3.87594 8.04086 4.31796C7.85778 4.75997 7.54773 5.13777 7.14992 5.40357C6.75212 5.66937 6.28443 5.81124 5.806 5.81124C5.16469 5.81045 4.54986 5.55534 4.09639 5.10186C3.64291 4.64838 3.38779 4.03356 3.387 3.39224ZM4.355 29.0372C4.09835 29.037 3.85229 28.9349 3.67081 28.7534C3.48934 28.572 3.38726 28.3259 3.387 28.0692V10.1692H2.419V17.4272C2.03399 17.427 1.66482 17.2739 1.39257 17.0017C1.12033 16.7294 0.967265 16.3603 0.967 15.9752V11.1342C0.968324 9.97946 1.42772 8.87237 2.24437 8.0559C3.06102 7.23944 4.16821 6.7803 5.323 6.77924H6.29C6.83815 6.78136 7.38097 6.88688 7.89 7.09024C6.20029 8.60349 5.03948 10.618 4.57756 12.8387C4.11563 15.0594 4.37686 17.3697 5.323 19.4312V28.0692C5.32274 28.3259 5.22066 28.572 5.03919 28.7534C4.85771 28.9349 4.61165 29.037 4.355 29.0372ZM8.226 28.0692C8.23017 28.1989 8.20823 28.3281 8.16148 28.4491C8.11474 28.5702 8.04414 28.6805 7.95389 28.7737C7.86364 28.8669 7.75557 28.9411 7.63611 28.9917C7.51665 29.0423 7.38824 29.0684 7.2585 29.0684C7.12876 29.0684 7.00035 29.0423 6.88089 28.9917C6.76143 28.9411 6.65336 28.8669 6.56311 28.7737C6.47286 28.6805 6.40226 28.5702 6.35552 28.4491C6.30877 28.3281 6.28683 28.1989 6.291 28.0692V21.1142C6.83957 21.8973 7.49033 22.6036 8.226 23.2142V28.0692ZM22.742 29.0372C22.4854 29.037 22.2393 28.9349 22.0578 28.7534C21.8763 28.572 21.7743 28.3259 21.774 28.0692V23.2102C22.5096 22.5995 23.1603 21.8932 23.709 21.1102V28.0652C23.7094 28.1926 23.6847 28.3187 23.6363 28.4365C23.5879 28.5543 23.5168 28.6614 23.427 28.7517C23.3371 28.8419 23.2304 28.9136 23.1129 28.9626C22.9954 29.0116 22.8693 29.037 22.742 29.0372ZM29.032 15.9722C29.0317 16.3573 28.8787 16.7264 28.6064 16.9987C28.3342 17.2709 27.965 17.424 27.58 17.4242V10.1662H26.612V28.0662C26.6162 28.1959 26.5942 28.3251 26.5475 28.4461C26.5007 28.5672 26.4301 28.6775 26.3399 28.7707C26.2496 28.8639 26.1416 28.9381 26.0221 28.9887C25.9027 29.0393 25.7742 29.0654 25.6445 29.0654C25.5148 29.0654 25.3863 29.0393 25.2669 28.9887C25.1474 28.9381 25.0394 28.8639 24.9491 28.7707C24.8589 28.6775 24.7883 28.5672 24.7415 28.4461C24.6948 28.3251 24.6728 28.1959 24.677 28.0662V19.4312C25.623 17.3696 25.8841 15.0593 25.422 12.8385C24.9599 10.6178 23.7989 8.60337 22.109 7.09024C22.618 6.88667 23.1608 6.78115 23.709 6.77924H24.677C25.8316 6.78057 26.9386 7.23982 27.755 8.05626C28.5714 8.87269 29.0307 9.97963 29.032 11.1342V15.9722Z" fill="white"/>
<path d="M13.2456 3.4292L11.7866 2.8452C14.3887 2.15681 17.1429 2.31976 19.6456 3.3102L20.0026 2.4102C17.3178 1.34757 14.3641 1.16857 11.5706 1.8992L12.0626 0.669204L11.1626 0.309204L10.0156 3.1812L12.8856 4.3292L13.2456 3.4292Z" fill="white"/>
<path d="M16.7574 26.5823L18.2114 27.1633C15.6179 27.8419 12.8762 27.683 10.3784 26.7093L10.0234 27.6093C12.7026 28.663 15.6473 28.8381 18.4324 28.1093L17.9404 29.3393L18.8404 29.6993L19.9884 26.8293L17.1184 25.6813L16.7574 26.5823Z" fill="white"/>
<path d="M11.8366 16.5873H11.3086V17.6423H11.8366V16.5873Z" fill="white"/>
<path d="M13.9456 16.5873H12.8906V17.6423H13.9456V16.5873Z" fill="white"/>
<path d="M16.055 16.5873H15V17.6423H16.055V16.5873Z" fill="white"/>
<path d="M18.6921 12.3683H18.1641V13.4233H18.6921V12.3683Z" fill="white"/>
<path d="M17.1097 12.3683H16.0547V13.4233H17.1097V12.3683Z" fill="white"/>
<path d="M15.0003 12.3683H13.9453V13.4233H15.0003V12.3683Z" fill="white"/>
</svg>
