<svg width="31" height="34" viewBox="0 0 31 34" fill="none" xmlns="http://www.w3.org/2000/svg">
<path d="M17.264 0.25H5.78303C5.43143 0.250265 5.09431 0.390053 4.8457 0.638669C4.59708 0.887285 4.4573 1.2244 4.45703 1.576V4.36C4.4573 4.7116 4.59708 5.04872 4.8457 5.29733C5.09431 5.54595 5.43143 5.68574 5.78303 5.686H17.264C17.6156 5.68574 17.9527 5.54595 18.2014 5.29733C18.45 5.04872 18.5898 4.7116 18.59 4.36V1.576C18.5898 1.2244 18.45 0.887285 18.2014 0.638669C17.9527 0.390053 17.6156 0.250265 17.264 0.25V0.25Z" fill="white" stroke="white" stroke-width="0.5"/>
<path d="M12.183 18.951H5.475C5.38217 18.951 5.29315 18.9141 5.22752 18.8485C5.16188 18.7828 5.125 18.6938 5.125 18.601C5.125 18.5082 5.16188 18.4191 5.22752 18.3535C5.29315 18.2878 5.38217 18.251 5.475 18.251H12.175C12.2678 18.251 12.3568 18.2878 12.4225 18.3535C12.4881 18.4191 12.525 18.5082 12.525 18.601C12.525 18.6938 12.4881 18.7828 12.4225 18.8485C12.3568 18.9141 12.2678 18.951 12.175 18.951H12.183Z" fill="white" stroke="white" stroke-width="0.5"/>
<path d="M3.52025 19.09C3.79032 19.09 4.00925 18.8715 4.00925 18.602C4.00925 18.3325 3.79032 18.114 3.52025 18.114C3.25018 18.114 3.03125 18.3325 3.03125 18.602C3.03125 18.8715 3.25018 19.09 3.52025 19.09Z" fill="white" stroke="white" stroke-width="0.5"/>
<path d="M12.183 22.4401H5.475C5.38217 22.4401 5.29315 22.4032 5.22752 22.3376C5.16188 22.2719 5.125 22.1829 5.125 22.0901C5.125 21.9973 5.16188 21.9083 5.22752 21.8426C5.29315 21.777 5.38217 21.7401 5.475 21.7401H12.175C12.2678 21.7401 12.3568 21.777 12.4225 21.8426C12.4881 21.9083 12.525 21.9973 12.525 22.0901C12.525 22.1829 12.4881 22.2719 12.4225 22.3376C12.3568 22.4032 12.2678 22.4401 12.175 22.4401H12.183Z" fill="white" stroke="white" stroke-width="0.5"/>
<path d="M3.52025 22.5781C3.79032 22.5781 4.00925 22.3596 4.00925 22.0901C4.00925 21.8205 3.79032 21.6021 3.52025 21.6021C3.25018 21.6021 3.03125 21.8205 3.03125 22.0901C3.03125 22.3596 3.25018 22.5781 3.52025 22.5781Z" fill="white" stroke="white" stroke-width="0.5"/>
<path d="M12.183 25.928H5.475C5.38217 25.928 5.29315 25.8911 5.22752 25.8255C5.16188 25.7599 5.125 25.6709 5.125 25.578C5.125 25.4852 5.16188 25.3962 5.22752 25.3305C5.29315 25.2649 5.38217 25.228 5.475 25.228H12.175C12.2678 25.228 12.3568 25.2649 12.4225 25.3305C12.4881 25.3962 12.525 25.4852 12.525 25.578C12.525 25.6709 12.4881 25.7599 12.4225 25.8255C12.3568 25.8911 12.2678 25.928 12.175 25.928H12.183Z" fill="white" stroke="white" stroke-width="0.5"/>
<path d="M3.52025 26.066C3.79032 26.066 4.00925 25.8475 4.00925 25.578C4.00925 25.3085 3.79032 25.09 3.52025 25.09C3.25018 25.09 3.03125 25.3085 3.03125 25.578C3.03125 25.8475 3.25018 26.066 3.52025 26.066Z" fill="white" stroke="white" stroke-width="0.5"/>
<path d="M12.183 29.417H5.475C5.38217 29.417 5.29315 29.3802 5.22752 29.3145C5.16188 29.2489 5.125 29.1598 5.125 29.067C5.125 28.9742 5.16188 28.8852 5.22752 28.8195C5.29315 28.7539 5.38217 28.717 5.475 28.717H12.175C12.2678 28.717 12.3568 28.7539 12.4225 28.8195C12.4881 28.8852 12.525 28.9742 12.525 29.067C12.525 29.1598 12.4881 29.2489 12.4225 29.3145C12.3568 29.3802 12.2678 29.417 12.175 29.417H12.183Z" fill="white" stroke="white" stroke-width="0.5"/>
<path d="M3.52025 29.555C3.79032 29.555 4.00925 29.3365 4.00925 29.067C4.00925 28.7975 3.79032 28.579 3.52025 28.579C3.25018 28.579 3.03125 28.7975 3.03125 29.067C3.03125 29.3365 3.25018 29.555 3.52025 29.555Z" fill="white" stroke="white" stroke-width="0.5"/>
<path d="M7.92185 8.151C7.16318 8.15199 6.42182 8.37787 5.79149 8.80009C5.16115 9.2223 4.67014 9.8219 4.38049 10.5231C4.09084 11.2243 4.01557 11.9956 4.16418 12.7396C4.3128 13.4836 4.67863 14.1668 5.21544 14.7029C5.75226 15.239 6.43595 15.604 7.18012 15.7516C7.92429 15.8993 8.69553 15.823 9.39636 15.5324C10.0972 15.2419 10.6961 14.7501 11.1175 14.1192C11.5389 13.4883 11.7638 12.7467 11.7638 11.988C11.762 10.9701 11.3565 9.99444 10.6362 9.27512C9.91595 8.5558 8.93978 8.15153 7.92185 8.151ZM7.92185 15.127C7.11887 15.1281 6.346 14.8214 5.76225 14.27C5.1785 13.7186 4.82825 12.9645 4.78354 12.1628C4.73884 11.361 5.00308 10.5726 5.52192 9.95979C6.04075 9.34693 6.77473 8.95621 7.57285 8.868V11.988C7.57285 12.0806 7.60962 12.1693 7.67507 12.2348C7.74052 12.3002 7.82929 12.337 7.92185 12.337H11.0468C10.9585 13.104 10.5913 13.8118 10.0151 14.3257C9.43892 14.8395 8.69392 15.1237 7.92185 15.124V15.127Z" fill="white" stroke="white" stroke-width="0.5"/>
<path d="M21.05 32.904H1.998C1.76871 32.9043 1.54162 32.8594 1.32968 32.7719C1.11775 32.6844 0.925123 32.556 0.762806 32.394C0.600489 32.2321 0.471658 32.0398 0.383671 31.828C0.295683 31.6163 0.250262 31.3893 0.25 31.16V4.249C0.250529 3.78663 0.434442 3.34334 0.761391 3.0164C1.08834 2.68945 1.53162 2.50553 1.994 2.505H2.708C2.80083 2.505 2.88985 2.54188 2.95549 2.60752C3.02113 2.67315 3.058 2.76218 3.058 2.855C3.058 2.94783 3.02113 3.03685 2.95549 3.10249C2.88985 3.16813 2.80083 3.205 2.708 3.205H1.994C1.71744 3.20606 1.4525 3.31639 1.25694 3.51195C1.06138 3.70751 0.951054 3.97244 0.950001 4.249V31.16C0.950266 31.4376 1.06066 31.7038 1.25695 31.9001C1.45325 32.0963 1.7194 32.2067 1.997 32.207H21.05C21.3276 32.2067 21.5938 32.0963 21.79 31.9001C21.9863 31.7038 22.0967 31.4376 22.097 31.16V29.281C22.097 29.1882 22.1339 29.0992 22.1995 29.0335C22.2652 28.9679 22.3542 28.931 22.447 28.931C22.5398 28.931 22.6289 28.9679 22.6945 29.0335C22.7601 29.0992 22.797 29.1882 22.797 29.281V31.164C22.7954 31.6262 22.6106 32.0689 22.2831 32.3951C21.9557 32.7213 21.5122 32.9043 21.05 32.904Z" fill="white" stroke="white" stroke-width="0.5"/>
<path d="M26.3406 12.5319C26.6106 12.5319 26.8296 12.3134 26.8296 12.0439C26.8296 11.7744 26.6106 11.5559 26.3406 11.5559C26.0705 11.5559 25.8516 11.7744 25.8516 12.0439C25.8516 12.3134 26.0705 12.5319 26.3406 12.5319Z" fill="white" stroke="white" stroke-width="0.5"/>
<path d="M27.4423 15.939C27.4382 15.1416 27.3565 14.3465 27.1983 13.565C27.1907 13.5185 27.1738 13.4741 27.1486 13.4344C27.1234 13.3947 27.0904 13.3604 27.0516 13.3338C27.0129 13.3071 26.9691 13.2886 26.923 13.2792C26.8769 13.2699 26.8294 13.27 26.7833 13.2795C26.7372 13.289 26.6935 13.3078 26.6549 13.3346C26.6162 13.3614 26.5834 13.3958 26.5584 13.4356C26.5333 13.4754 26.5166 13.5199 26.5092 13.5664C26.5018 13.6128 26.5039 13.6603 26.5153 13.706C27.4803 18.369 25.1463 23.343 24.6403 24.345H22.7593V23.327C22.7593 23.2341 22.7224 23.1451 22.6568 23.0795C22.5911 23.0138 22.5021 22.977 22.4093 22.977C22.3165 22.977 22.2274 23.0138 22.1618 23.0795C22.0961 23.1451 22.0593 23.2341 22.0593 23.327V24.344H20.2153C19.4868 22.8734 18.9288 21.3243 18.5523 19.727C17.9883 17.299 17.6943 13.821 19.4173 10.862C21.4528 11.6414 23.7113 11.6005 25.7173 10.748C25.7633 10.7278 25.8045 10.698 25.8381 10.6606C25.8716 10.6232 25.8967 10.579 25.9117 10.531C25.9267 10.483 25.9312 10.4324 25.9249 10.3825C25.9186 10.3327 25.9017 10.2847 25.8753 10.242C25.0741 8.9902 24.0177 7.92159 22.7753 7.10596L22.7863 4.25096C22.7857 3.78858 22.6018 3.3453 22.2749 3.01835C21.9479 2.6914 21.5047 2.50749 21.0423 2.50696H20.3283C20.2354 2.50696 20.1464 2.54383 20.0808 2.60947C20.0152 2.67511 19.9783 2.76413 19.9783 2.85696C19.9783 2.94978 20.0152 3.03881 20.0808 3.10445C20.1464 3.17008 20.2354 3.20696 20.3283 3.20696H21.0423C21.3195 3.20722 21.5854 3.31734 21.7816 3.5132C21.9779 3.70906 22.0885 3.9747 22.0893 4.25196L22.0783 7.10796C20.6077 8.06088 19.4066 9.3757 18.5902 10.9263C17.7739 12.4769 17.3696 14.2112 17.4163 15.963C16.2123 17.1759 15.3534 18.6877 14.9278 20.3429C14.5023 21.9981 14.5256 23.7368 14.9953 25.38C15.0166 25.4498 15.0592 25.5112 15.1171 25.5556C15.175 25.6001 15.2453 25.6254 15.3182 25.6281C15.3912 25.6307 15.4631 25.6105 15.5241 25.5704C15.585 25.5302 15.6319 25.472 15.6583 25.404C16.1416 23.9351 17.1237 22.6817 18.4343 21.861C18.7569 22.8334 19.1503 23.7809 19.6113 24.696L18.2953 27.305C18.2691 27.3582 18.2568 27.4172 18.2596 27.4764C18.2624 27.5357 18.2801 27.5932 18.3111 27.6438C18.3422 27.6943 18.3856 27.7361 18.4372 27.7654C18.4888 27.7946 18.547 27.8103 18.6063 27.811H26.2063C26.2656 27.8103 26.3238 27.7946 26.3754 27.7654C26.427 27.7361 26.4703 27.6943 26.5014 27.6438C26.5325 27.5932 26.5502 27.5357 26.553 27.4764C26.5557 27.4172 26.5435 27.3582 26.5173 27.305L25.2173 24.733C25.6887 23.8015 26.0898 22.8362 26.4173 21.845C27.7373 22.6652 28.7267 23.9237 29.2123 25.4C29.2386 25.468 29.2855 25.5262 29.3465 25.5664C29.4074 25.6065 29.4794 25.6267 29.5523 25.6241C29.6253 25.6214 29.6956 25.5961 29.7535 25.5516C29.8113 25.5072 29.8539 25.4458 29.8753 25.376C30.3473 23.7289 30.3706 21.9855 29.9428 20.3264C29.5151 18.6673 28.6518 17.1525 27.4423 15.939ZM25.6423 27.114H19.1723L20.2173 25.042H22.0583V25.942C22.0583 26.0348 22.0952 26.1238 22.1608 26.1894C22.2264 26.2551 22.3154 26.292 22.4083 26.292C22.5011 26.292 22.5901 26.2551 22.6558 26.1894C22.7214 26.1238 22.7583 26.0348 22.7583 25.942V25.042H24.5993L25.6423 27.114Z" fill="white" stroke="white" stroke-width="0.5"/>
<path d="M22.4404 13.286C22.0772 13.2874 21.7225 13.3964 21.4212 13.5992C21.1198 13.802 20.8853 14.0895 20.7473 14.4255C20.6093 14.7614 20.5738 15.1308 20.6455 15.4869C20.7173 15.8429 20.8929 16.1698 21.1502 16.4261C21.4075 16.6825 21.735 16.8568 22.0914 16.9272C22.4477 16.9975 22.8169 16.9607 23.1524 16.8214C23.4878 16.6821 23.7745 16.4465 23.9761 16.1444C24.1778 15.8423 24.2854 15.4872 24.2854 15.124C24.2838 14.6358 24.0887 14.1682 23.7428 13.8236C23.3969 13.4791 22.9286 13.2857 22.4404 13.286Z" fill="white" stroke="white" stroke-width="0.5"/>
</svg>
