<svg width="30" height="30" viewBox="0 0 30 30" fill="none" xmlns="http://www.w3.org/2000/svg">
<path d="M15 0C12.0333 0 9.13319 0.879735 6.66645 2.52796C4.19972 4.17618 2.27713 6.51886 1.14181 9.25975C0.00649929 12.0006 -0.290551 15.0166 0.288228 17.9264C0.867006 20.8361 2.29562 23.5088 4.3934 25.6066C6.49119 27.7044 9.16394 29.133 12.0737 29.7118C14.9834 30.2906 17.9994 29.9935 20.7403 28.8582C23.4811 27.7229 25.8238 25.8003 27.472 23.3336C29.1203 20.8668 30 17.9667 30 15C30 11.0218 28.4197 7.20644 25.6066 4.3934C22.7936 1.58035 18.9783 0 15 0ZM15 28.5C12.33 28.5 9.71987 27.7082 7.49981 26.2248C5.27974 24.7414 3.54942 22.633 2.52763 20.1662C1.50585 17.6994 1.2385 14.985 1.75941 12.3663C2.28031 9.74754 3.56606 7.34207 5.45407 5.45406C7.34207 3.56605 9.74754 2.2803 12.3663 1.7594C14.985 1.2385 17.6994 1.50584 20.1662 2.52763C22.633 3.54941 24.7414 5.27974 26.2248 7.4998C27.7082 9.71987 28.5 12.33 28.5 15C28.5 18.5804 27.0777 22.0142 24.5459 24.5459C22.0142 27.0777 18.5804 28.5 15 28.5Z" fill="white"/>
<path d="M20.1489 8.78689L8.77933 20.1565C8.58407 20.3517 8.58407 20.6683 8.77933 20.8636L9.13996 21.2242C9.33522 21.4194 9.6518 21.4194 9.84707 21.2242L21.2166 9.85462C21.4119 9.65936 21.4119 9.34277 21.2166 9.14751L20.856 8.78689C20.6607 8.59162 20.3442 8.59162 20.1489 8.78689Z" fill="white"/>
<path d="M18.9681 16.765C18.5202 16.765 18.0822 16.8979 17.7098 17.1467C17.3373 17.3956 17.047 17.7494 16.8755 18.1632C16.7041 18.5771 16.6593 19.0325 16.7466 19.4719C16.834 19.9113 17.0498 20.3148 17.3665 20.6316C17.6833 20.9484 18.0869 21.1641 18.5262 21.2515C18.9656 21.3389 19.421 21.294 19.8349 21.1226C20.2488 20.9512 20.6025 20.6609 20.8514 20.2884C21.1003 19.9159 21.2331 19.478 21.2331 19.03C21.2331 18.7326 21.1745 18.438 21.0607 18.1632C20.9469 17.8884 20.78 17.6387 20.5697 17.4284C20.3594 17.2181 20.1097 17.0513 19.8349 16.9374C19.5601 16.8236 19.2656 16.765 18.9681 16.765ZM18.9681 19.785C18.7691 19.7812 18.5793 19.7004 18.4385 19.5596C18.2977 19.4189 18.217 19.2291 18.2131 19.03C18.2131 18.8807 18.2574 18.7347 18.3404 18.6106C18.4233 18.4864 18.5412 18.3896 18.6792 18.3325C18.8172 18.2753 18.969 18.2604 19.1154 18.2895C19.2619 18.3187 19.3964 18.3906 19.502 18.4961C19.6076 18.6017 19.6795 18.7363 19.7086 18.8827C19.7378 19.0292 19.7228 19.181 19.6657 19.3189C19.6085 19.4569 19.5117 19.5748 19.3876 19.6578C19.2634 19.7407 19.1175 19.785 18.9681 19.785Z" fill="white"/>
<path d="M11.0033 8.78003C10.5553 8.78003 10.1174 8.91287 9.74492 9.16175C9.37244 9.41063 9.08213 9.76438 8.9107 10.1783C8.73926 10.5921 8.69441 11.0475 8.7818 11.4869C8.8692 11.9263 9.08492 12.3299 9.40169 12.6466C9.71845 12.9634 10.122 13.1791 10.5614 13.2665C11.0008 13.3539 11.4562 13.309 11.8701 13.1376C12.2839 12.9662 12.6377 12.6759 12.8866 12.3034C13.1354 11.9309 13.2683 11.493 13.2683 11.045C13.2683 10.4443 13.0296 9.8682 12.6049 9.44343C12.1801 9.01866 11.604 8.78003 11.0033 8.78003ZM11.0033 11.8C10.854 11.8 10.708 11.7557 10.5838 11.6728C10.4597 11.5898 10.3629 11.4719 10.3058 11.334C10.2486 11.196 10.2337 11.0442 10.2628 10.8977C10.2919 10.7513 10.3638 10.6168 10.4694 10.5112C10.575 10.4056 10.7095 10.3337 10.856 10.3045C11.0024 10.2754 11.1542 10.2904 11.2922 10.3475C11.4302 10.4046 11.5481 10.5014 11.631 10.6256C11.714 10.7497 11.7583 10.8957 11.7583 11.045C11.7583 11.1442 11.7388 11.2424 11.7008 11.334C11.6629 11.4256 11.6073 11.5088 11.5371 11.5789C11.467 11.649 11.3838 11.7046 11.2922 11.7426C11.2006 11.7805 11.1024 11.8 11.0033 11.8Z" fill="white"/>
</svg>
