<svg width="29" height="28" viewBox="0 0 29 28" fill="none" xmlns="http://www.w3.org/2000/svg">
<path d="M14.2394 -1.90735e-06C14.9527 -1.90735e-06 15.5313 0.492868 15.5313 1.09964L15.5318 24.3934L26.6231 14.9529C26.8759 14.7385 27.2058 14.6311 27.5365 14.6311C27.8673 14.6311 28.1981 14.7385 28.4509 14.9529C28.9556 15.3825 28.9556 16.0786 28.4509 16.5086L15.3286 27.6778C14.8239 28.1074 14.006 28.1074 13.5008 27.6778L0.378527 16.5086C-0.126176 16.079 -0.126176 15.3829 0.378527 14.9529C0.88323 14.5233 1.70114 14.5233 2.2063 14.9529L12.9474 24.0961L12.9474 1.09983C12.9474 0.492661 13.5265 0.00019455 14.2393 0.00019455L14.2394 -1.90735e-06Z" fill="#363636"/>
</svg>
