<svg width="48" height="48" viewBox="0 0 48 48" fill="none" xmlns="http://www.w3.org/2000/svg">
<path d="M43.7148 -0.499983C44.2762 -0.50141 44.8324 -0.391677 45.3516 -0.177053C45.8709 0.0375711 46.3429 0.352883 46.7408 0.750872C47.1388 1.14886 47.4548 1.62173 47.6708 2.14247C47.8869 2.66321 47.9987 3.22163 48 3.78581V8.92901C47.9987 9.4932 47.8869 10.0516 47.6708 10.5724C47.4548 11.0931 47.1388 11.566 46.7408 11.964C46.3429 12.3619 45.8709 12.6773 45.3516 12.8919C44.8324 13.1065 44.2762 13.2162 43.7148 13.2148H42.8568V33.7864H43.7148C44.2762 33.785 44.8324 33.8947 45.3516 34.1093C45.8709 34.3239 46.3429 34.6393 46.7408 35.0373C47.1388 35.4352 47.4548 35.9081 47.6708 36.4289C47.8869 36.9496 47.9987 37.508 48 38.0722V43.2142C47.9987 43.7784 47.8869 44.3368 47.6708 44.8575C47.4548 45.3783 47.1388 45.8511 46.7408 46.2491C46.3429 46.6471 45.8709 46.9624 45.3516 47.1771C44.8324 47.3917 44.2762 47.5014 43.7148 47.5H38.5716C38.0101 47.5016 37.4537 47.3919 36.9344 47.1774C36.415 46.9628 35.9428 46.6476 35.5448 46.2495C35.1467 45.8515 34.8306 45.3786 34.6145 44.8578C34.3983 44.337 34.2865 43.7785 34.2852 43.2142V42.358H13.716V43.2142C13.7147 43.7785 13.6029 44.337 13.3867 44.8578C13.1706 45.3786 12.8545 45.8515 12.4564 46.2495C12.0584 46.6476 11.5862 46.9628 11.0668 47.1774C10.5475 47.3919 9.99112 47.5016 9.4296 47.5H4.2852C3.72378 47.5014 3.16757 47.3917 2.64836 47.1771C2.12914 46.9624 1.65709 46.6471 1.25915 46.2491C0.861218 45.8511 0.545203 45.3783 0.329155 44.8575C0.113107 44.3368 0.00125913 43.7784 0 43.2142L0 38.0734C0 35.705 1.92 33.7876 4.2852 33.7876H5.1432V13.2148H4.284C3.15057 13.2174 2.06252 12.7674 1.25915 11.964C0.455779 11.1605 0.00286096 10.0692 0 8.93022L0 3.78581C0 1.41982 1.92 -0.499983 4.2852 -0.499983H9.4284C9.98992 -0.501569 10.5463 -0.391953 11.0656 -0.1774C11.585 0.0371531 12.0572 0.352439 12.4552 0.750444C12.8533 1.14845 13.1694 1.62137 13.3855 2.14219C13.6017 2.66301 13.7135 3.22152 13.7148 3.78581V4.64321H34.284V3.78702C34.2851 3.22263 34.3969 2.66399 34.6129 2.14303C34.829 1.62207 35.1451 1.149 35.5432 0.75087C35.9412 0.352738 36.4135 0.0373437 36.9329 -0.177285C37.4523 -0.391913 38.0088 -0.501569 38.5704 -0.499983H43.7148ZM43.7148 2.92841H38.5716C38.3449 2.92809 38.1273 3.01821 37.9667 3.17897C37.806 3.33973 37.7154 3.55799 37.7148 3.78581V8.92901C37.7148 9.39932 38.1 9.78521 38.5716 9.78521H43.7148C44.1852 9.78521 44.5716 9.39932 44.5716 8.92901V3.78581C44.5703 3.55829 44.4795 3.34053 44.319 3.1801C44.1584 3.01967 43.9412 2.92841 43.7148 2.92841ZM8.5716 33.7864H9.4284C9.98992 33.7848 10.5463 33.8944 11.0656 34.109C11.585 34.3235 12.0572 34.6388 12.4552 35.0368C12.8533 35.4348 13.1694 35.9078 13.3855 36.4286C13.6017 36.9494 13.7135 37.5079 13.7148 38.0722V38.9284H34.284V38.0722C34.2853 37.5079 34.3971 36.9494 34.6133 36.4286C34.8294 35.9078 35.1455 35.4348 35.5436 35.0368C35.9416 34.6388 36.4138 34.3235 36.9332 34.109C37.4525 33.8944 38.0089 33.7848 38.5704 33.7864H39.4272V13.2136H38.5704C38.009 13.2152 37.4527 13.1056 36.9335 12.8911C36.4142 12.6767 35.942 12.3615 35.544 11.9636C35.146 11.5657 34.8298 11.0929 34.6136 10.5723C34.3974 10.0516 34.2854 9.4932 34.284 8.92901V8.07282H13.716V8.92901C13.7147 9.4933 13.6029 10.0518 13.3867 10.5726C13.1706 11.0935 12.8545 11.5664 12.4564 11.9644C12.0584 12.3624 11.5862 12.6777 11.0668 12.8922C10.5475 13.1068 9.99112 13.2164 9.4296 13.2148H8.5728L8.5716 33.7864ZM3.4284 38.0722V43.2142C3.4284 43.6857 3.8124 44.0716 4.2852 44.0716H9.4284C9.9024 44.0716 10.2852 43.6857 10.2852 43.2154V38.0722C10.2842 37.8445 10.1936 37.6264 10.033 37.4657C9.8724 37.305 9.65501 37.2148 9.4284 37.2148H4.2852C4.0587 37.2145 3.84131 37.3044 3.68069 37.4649C3.52008 37.6254 3.42935 37.8446 3.4284 38.0722ZM37.7148 38.0722V43.2142C37.7148 43.6857 38.1 44.0716 38.5716 44.0716H43.7148C44.1852 44.0716 44.5716 43.6857 44.5716 43.2154V38.0722C44.5703 37.8446 44.4795 37.6267 44.319 37.466C44.1585 37.3054 43.9413 37.2151 43.7148 37.2148H38.5716C38.3453 37.2151 38.1283 37.3053 37.9678 37.4656C37.8073 37.626 37.7164 37.8448 37.7148 38.0722ZM3.4284 3.78581V8.92901C3.4284 9.39932 3.8124 9.78521 4.2852 9.78521H9.4284C9.9024 9.78521 10.2852 9.39932 10.2852 8.92901V3.78581C10.2852 3.31189 9.9012 2.92962 9.4284 2.92962H4.2852C4.173 2.9293 4.06183 2.9512 3.95805 2.99405C3.85427 3.03691 3.75991 3.09989 3.68034 3.17939C3.60078 3.2589 3.53758 3.35337 3.49435 3.45742C3.45113 3.56147 3.42871 3.67306 3.4284 3.78581Z" fill="url(#paint0_linear_2238_8433)"/>
<defs>
<linearGradient id="paint0_linear_2238_8433" x1="47.7294" y1="-8.60102" x2="-1.81838" y2="-6.94623" gradientUnits="userSpaceOnUse">
<stop stop-color="#0045FF"/>
<stop offset="1" stop-color="#00A3FF"/>
</linearGradient>
</defs>
</svg>
