<svg width="63" height="71" viewBox="0 0 63 71" fill="none" xmlns="http://www.w3.org/2000/svg">
<g clip-path="url(#clip0_2074_2645)">
<path d="M30.3186 -0.773438C30.3186 2.65972 30.313 6.09289 30.32 9.52746C30.3297 13.6309 33.2279 16.597 37.2749 16.6266C40.1258 16.6478 42.9767 16.6308 45.8277 16.6308C46.078 16.6308 46.3283 16.6308 46.6357 16.6308V29.9712C45.8471 29.9712 45.0683 29.9486 44.2909 29.9755C39.4513 30.1391 35.1582 31.8183 31.388 34.8705C30.8067 35.3418 30.2421 35.5295 29.5037 35.5266C23.3623 35.4998 17.2196 35.5111 11.0783 35.5111C10.9156 35.5111 10.7543 35.5111 10.5916 35.5111C9.44006 35.5154 8.80034 35.9824 8.79895 36.822C8.79755 37.6602 9.43727 38.1343 10.5888 38.1343C16.1279 38.1357 21.6671 38.1343 27.2062 38.1343H28.0601C27.8738 38.4292 27.7458 38.6141 27.6346 38.8088C26.7904 40.2905 25.9254 41.7594 25.1257 43.265C24.9074 43.6756 24.7085 43.8323 24.2468 43.8295C19.8661 43.8097 10.6875 43.8168 10.4789 43.8182C9.42754 43.8252 8.82398 44.2852 8.80173 45.0938C8.77948 45.9221 9.39834 46.4174 10.4942 46.423C12.1172 46.4301 13.7387 46.4258 15.3616 46.4258C17.9581 46.4258 20.5531 46.4258 23.1496 46.4258C23.3971 46.4258 23.6446 46.4258 23.9937 46.4258C22.8686 51.2955 23.1899 55.9746 25.0409 60.5959C24.7183 60.5959 24.4916 60.5959 24.2635 60.5959C18.214 60.5959 12.1644 60.5959 6.11629 60.5959C4.13315 60.5959 2.43928 59.9468 1.19183 58.3128C0.31847 57.167 0 55.8462 0 54.421C0.0027814 47.7424 0.0013907 41.0637 0.0013907 34.3851C0.0013907 24.7432 0.0013907 15.1012 0.0013907 5.45931C0.0027814 2.94194 0.999912 0.99747 3.25006 -0.168083C3.79521 -0.4503 4.41964 -0.575886 5.0079 -0.773438C13.4453 -0.773438 21.8812 -0.773438 30.3186 -0.773438ZM18.2209 29.9881C20.7687 29.9881 23.3164 29.9896 25.8628 29.9853C26.1159 29.9853 26.3774 29.9839 26.6207 29.9232C27.2257 29.7737 27.5998 29.2445 27.5761 28.6279C27.5511 27.9999 27.1492 27.5371 26.5095 27.4355C26.2369 27.3918 25.956 27.3889 25.6792 27.3889C20.7005 27.3861 15.7204 27.3861 10.7417 27.3889C10.4414 27.3889 10.1382 27.396 9.84336 27.444C9.30933 27.5315 8.98669 27.8673 8.85875 28.3993C8.64597 29.2826 9.26066 29.9797 10.3023 29.9839C12.9418 29.9952 15.5828 29.9881 18.2223 29.9881H18.2209Z" fill="#98C1FF"/>
<path d="M43.7572 70.2263C42.7586 70.0442 41.7448 69.9229 40.7644 69.6703C33.4173 67.7851 27.9964 61.5058 27.2343 54.0398C26.2928 44.8212 31.9849 36.6284 40.9368 34.3199C47.5579 32.6125 55.1261 35.3556 59.244 40.9139C62.1227 44.7986 63.4536 49.1616 62.8612 53.9692C61.9767 61.1318 58.1564 66.1807 51.5659 68.9224C49.9305 69.6026 48.1017 69.8044 46.3619 70.2277H43.7585L43.7572 70.2263ZM43.6723 44.9665C43.7419 45.0116 43.81 45.0568 43.8795 45.102C43.8795 45.3334 43.8795 45.5648 43.8795 45.7962C43.8795 51.0991 43.8795 56.4033 43.8795 61.7062C43.8795 61.9475 43.8684 62.193 43.8976 62.4315C43.9797 63.0862 44.465 63.5166 45.0853 63.5109C45.7069 63.5053 46.17 63.0707 46.2423 62.4075C46.2687 62.1676 46.2632 61.9249 46.2632 61.6822C46.2632 56.3793 46.2632 51.0751 46.2632 45.7722V45.1104L46.4426 45.0582C46.5803 45.2247 46.711 45.3983 46.857 45.5577C48.8332 47.7195 50.8094 49.8813 52.7939 52.036C53.3933 52.6865 54.1067 52.774 54.6255 52.2942C55.1497 51.8102 55.1609 51.0271 54.5962 50.409C51.7662 47.3103 48.9305 44.2158 46.0838 41.1326C45.4079 40.4016 44.7028 40.4299 44.0019 41.1636C43.5944 41.5898 43.2037 42.0329 42.8045 42.4675C40.4097 45.0751 38.0024 47.6729 35.6355 50.306C35.3448 50.6292 35.107 51.1583 35.1376 51.5704C35.1626 51.9076 35.5646 52.3352 35.9039 52.5017C36.449 52.7684 36.9358 52.4551 37.3349 52.0191C39.3139 49.8601 41.3012 47.7082 43.2801 45.5479C43.4359 45.3771 43.5444 45.1598 43.6737 44.9651L43.6723 44.9665Z" fill="#0076F2"/>
<path d="M32.9042 1.22266C36.9511 5.54198 40.8687 9.7216 44.917 14.0409C44.2383 14.0409 43.7419 14.0409 43.244 14.0409C41.2984 14.0409 39.3514 14.0452 37.4058 14.0409C34.8178 14.0325 33.0516 12.5282 32.9334 9.94879C32.804 7.11675 32.9042 4.27483 32.9042 1.22407V1.22266Z" fill="#98C1FF"/>
</g>
<defs>
<clipPath id="clip0_2074_2645">
<rect width="63" height="71" fill="white"/>
</clipPath>
</defs>
</svg>
