<svg xmlns="http://www.w3.org/2000/svg" width="24" height="25" viewBox="0 0 24 25" fill="none"><path d="M10.9053 14.1676H10.6493C8.92942 14.1676 7.20839 14.1676 5.48851 14.1687C5.30596 14.1687 5.13719 14.1577 5.0396 13.9795C4.94545 13.8068 5.03616 13.6756 5.13489 13.5411C7.76982 9.9439 10.4024 6.34672 13.0351 2.74846C13.0523 2.7255 13.0695 2.70363 13.0856 2.68067C13.1912 2.53416 13.3301 2.45872 13.5161 2.52323C13.6998 2.58773 13.7607 2.72878 13.7458 2.9059C13.6826 3.66033 13.6195 4.41365 13.5552 5.16808C13.445 6.4823 13.3336 7.79653 13.2234 9.11075C13.1855 9.55356 13.1476 9.99638 13.1109 10.4392C13.1005 10.5627 13.0948 10.6852 13.0856 10.8339C13.1878 10.8339 13.2739 10.8339 13.3588 10.8339C15.0868 10.8339 16.8135 10.8317 18.5414 10.8383C18.662 10.8383 18.8124 10.8754 18.8962 10.9487C19.065 11.0963 19.0041 11.268 18.8824 11.4342C18.2831 12.2465 17.6895 13.0611 17.0937 13.8756C15.0649 16.6473 13.0351 19.4201 11.0064 22.1918C10.9685 22.2432 10.934 22.2956 10.8938 22.3459C10.7917 22.4739 10.6608 22.5351 10.4931 22.4793C10.3198 22.4214 10.2383 22.2989 10.252 22.1251C10.283 21.7173 10.3186 21.3083 10.3519 20.9005C10.4782 19.3928 10.6057 17.8839 10.732 16.3762C10.7894 15.6917 10.8479 15.0062 10.9053 14.3217C10.9088 14.2802 10.9053 14.2386 10.9053 14.1676Z" fill="white"></path></svg>