<svg width="21" height="21" viewBox="0 0 21 21" fill="none" xmlns="http://www.w3.org/2000/svg">
<path d="M10.0132 1.80961C12.6673 1.80961 13.0292 1.80961 14.115 1.80961C15.0801 1.80961 15.5626 2.05089 15.9246 2.17153C16.4071 2.41281 16.7691 2.53345 17.131 2.89538C17.4929 3.2573 17.7342 3.61922 17.8548 4.10178C17.9755 4.46371 18.0961 4.94627 18.2167 5.91139C18.2167 6.99716 18.2167 7.23844 18.2167 10.0132C18.2167 12.7879 18.2167 13.0292 18.2167 14.115C18.2167 15.0801 17.9755 15.5626 17.8548 15.9246C17.6135 16.4071 17.4929 16.7691 17.131 17.131C16.7691 17.4929 16.4071 17.7342 15.9246 17.8548C15.5626 17.9755 15.0801 18.0961 14.115 18.2167C13.0292 18.2167 12.7879 18.2167 10.0132 18.2167C7.23844 18.2167 6.99716 18.2167 5.91139 18.2167C4.94627 18.2167 4.46371 17.9755 4.10178 17.8548C3.61922 17.6135 3.2573 17.4929 2.89538 17.131C2.53345 16.7691 2.29217 16.4071 2.17153 15.9246C2.05089 15.5626 1.93025 15.0801 1.80961 14.115C1.80961 13.0292 1.80961 12.7879 1.80961 10.0132C1.80961 7.23844 1.80961 6.99716 1.80961 5.91139C1.80961 4.94627 2.05089 4.46371 2.17153 4.10178C2.41281 3.61922 2.53345 3.2573 2.89538 2.89538C3.2573 2.53345 3.61922 2.29217 4.10178 2.17153C4.46371 2.05089 4.94627 1.93025 5.91139 1.80961C6.99716 1.80961 7.35908 1.80961 10.0132 1.80961ZM10.0132 0C7.23844 0 6.99716 0 5.91139 0C4.82563 0 4.10178 0.241282 3.49858 0.482563C2.89538 0.723845 2.29217 1.08577 1.68897 1.68897C1.08577 2.29217 0.844485 2.77474 0.482563 3.49858C0.241282 4.10178 0.120641 4.82563 0 5.91139C0 6.99716 0 7.35908 0 10.0132C0 12.7879 0 13.0292 0 14.115C0 15.2007 0.241282 15.9246 0.482563 16.5278C0.723845 17.131 1.08577 17.7342 1.68897 18.3374C2.29217 18.9406 2.77474 19.1819 3.49858 19.5438C4.10178 19.7851 4.82563 19.9057 5.91139 20.0264C6.99716 20.0264 7.35908 20.0264 10.0132 20.0264C12.6673 20.0264 13.0292 20.0264 14.115 20.0264C15.2007 20.0264 15.9246 19.7851 16.5278 19.5438C17.131 19.3025 17.7342 18.9406 18.3374 18.3374C18.9406 17.7342 19.1819 17.2516 19.5438 16.5278C19.7851 15.9246 19.9057 15.2007 20.0264 14.115C20.0264 13.0292 20.0264 12.6673 20.0264 10.0132C20.0264 7.35908 20.0264 6.99716 20.0264 5.91139C20.0264 4.82563 19.7851 4.10178 19.5438 3.49858C19.3025 2.89538 18.9406 2.29217 18.3374 1.68897C17.7342 1.08577 17.2516 0.844485 16.5278 0.482563C15.9246 0.241282 15.2007 0.120641 14.115 0C13.0292 0 12.7879 0 10.0132 0Z" fill="#002041"/>
<path d="M10.0132 4.82563C7.1178 4.82563 4.82563 7.1178 4.82563 10.0132C4.82563 12.9086 7.1178 15.2007 10.0132 15.2007C12.9086 15.2007 15.2007 12.9086 15.2007 10.0132C15.2007 7.1178 12.9086 4.82563 10.0132 4.82563ZM10.0132 13.3911C8.20357 13.3911 6.63524 11.9434 6.63524 10.0132C6.63524 8.20357 8.08292 6.63524 10.0132 6.63524C11.8228 6.63524 13.3911 8.08292 13.3911 10.0132C13.3911 11.8228 11.8228 13.3911 10.0132 13.3911Z" fill="#002041"/>
<path d="M15.3214 5.91139C15.9876 5.91139 16.5278 5.37127 16.5278 4.70499C16.5278 4.03871 15.9876 3.49858 15.3214 3.49858C14.6551 3.49858 14.115 4.03871 14.115 4.70499C14.115 5.37127 14.6551 5.91139 15.3214 5.91139Z" fill="#002041"/>
</svg>
