<svg width="20" height="20" viewBox="0 0 20 20" fill="none" xmlns="http://www.w3.org/2000/svg">
<path d="M4.34307 19.3025H0.241278V6.39396H4.34307V19.3025ZM2.29217 4.58435C0.965127 4.58435 0 3.61922 0 2.29217C0 0.965125 1.08577 0 2.29217 0C3.61922 0 4.58435 0.965125 4.58435 2.29217C4.58435 3.61922 3.61922 4.58435 2.29217 4.58435ZM19.3025 19.3025H15.2007V12.3054C15.2007 10.2545 14.3562 9.65125 13.1498 9.65125C11.9434 9.65125 10.737 10.6164 10.737 12.426V19.3025H6.63524V6.39396H10.4957V8.20357C10.8577 7.35908 12.3053 6.03203 14.3562 6.03203C16.6484 6.03203 19.0612 7.35908 19.0612 11.3402V19.3025H19.3025Z" fill="#002041"/>
</svg>
