<svg xmlns="http://www.w3.org/2000/svg" width="25" height="25" viewBox="0 0 25 25" fill="none"><g clip-path="url(#clip0_1839_2271)"><path d="M21.1201 8.78203C20.0701 4.16203 16.0401 2.08203 12.5001 2.08203C12.5001 2.08203 12.5001 2.08203 12.4901 2.08203C8.9601 2.08203 4.9201 4.15203 3.8701 8.77203C2.7001 13.932 5.8601 18.302 8.7201 21.052C9.7801 22.072 11.1401 22.582 12.5001 22.582C13.8601 22.582 15.2201 22.072 16.2701 21.052C19.1301 18.302 22.2901 13.942 21.1201 8.78203ZM12.5001 13.792C10.7601 13.792 9.3501 12.382 9.3501 10.642C9.3501 8.90203 10.7601 7.49203 12.5001 7.49203C14.2401 7.49203 15.6501 8.90203 15.6501 10.642C15.6501 12.382 14.2401 13.792 12.5001 13.792Z" fill="url(#paint0_linear_1839_2271)"></path></g><defs><linearGradient id="paint0_linear_1839_2271" x1="8.02822" y1="-10.944" x2="26.5803" y2="-1.35662" gradientUnits="userSpaceOnUse"><stop stop-color="#00A3FF"></stop><stop offset="1" stop-color="#0045FF"></stop></linearGradient><clipPath id="clip0_1839_2271"><rect width="24" height="24" fill="white" transform="translate(0.5 0.332031)"></rect></clipPath></defs></svg>