<svg xmlns="http://www.w3.org/2000/svg" width="25" height="25" viewBox="0 0 25 25" fill="none"><path d="M17.5 3.83203H7.5C4.5 3.83203 2.5 5.33203 2.5 8.83203V15.832C2.5 19.332 4.5 20.832 7.5 20.832H17.5C20.5 20.832 22.5 19.332 22.5 15.832V8.83203C22.5 5.33203 20.5 3.83203 17.5 3.83203ZM17.97 9.92203L14.84 12.422C14.18 12.952 13.34 13.212 12.5 13.212C11.66 13.212 10.81 12.952 10.16 12.422L7.03 9.92203C6.71 9.66203 6.66 9.18203 6.91 8.86203C7.17 8.54203 7.64 8.48203 7.96 8.74203L11.09 11.242C11.85 11.852 13.14 11.852 13.9 11.242L17.03 8.74203C17.35 8.48203 17.83 8.53203 18.08 8.86203C18.34 9.18203 18.29 9.66203 17.97 9.92203Z" fill="url(#paint0_linear_1839_2265)"></path><defs><linearGradient id="paint0_linear_1839_2265" x1="7.46689" y1="-6.97005" x2="25.2067" y2="5.48642" gradientUnits="userSpaceOnUse"><stop stop-color="#00A3FF"></stop><stop offset="1" stop-color="#0045FF"></stop></linearGradient></defs></svg>