<svg xmlns="http://www.w3.org/2000/svg" width="25" height="25" viewBox="0 0 25 25" fill="none"><path d="M11.55 15.782L9.7 17.632C9.31 18.022 8.69 18.022 8.29 17.642C8.18 17.532 8.07 17.432 7.96 17.322C6.93 16.282 6 15.192 5.17 14.052C4.35 12.912 3.69 11.772 3.21 10.642C2.74 9.50203 2.5 8.41203 2.5 7.37203C2.5 6.69203 2.62 6.04203 2.86 5.44203C3.1 4.83203 3.48 4.27203 4.01 3.77203C4.65 3.14203 5.35 2.83203 6.09 2.83203C6.37 2.83203 6.65 2.89203 6.9 3.01203C7.16 3.13203 7.39 3.31203 7.57 3.57203L9.89 6.84203C10.07 7.09203 10.2 7.32203 10.29 7.54203C10.38 7.75203 10.43 7.96203 10.43 8.15203C10.43 8.39203 10.36 8.63203 10.22 8.86203C10.09 9.09203 9.9 9.33203 9.66 9.57203L8.9 10.362C8.79 10.472 8.74 10.602 8.74 10.762C8.74 10.842 8.75 10.912 8.77 10.992C8.8 11.072 8.83 11.132 8.85 11.192C9.03 11.522 9.34 11.952 9.78 12.472C10.23 12.992 10.71 13.522 11.23 14.052C11.33 14.152 11.44 14.252 11.54 14.352C11.94 14.742 11.95 15.382 11.55 15.782Z" fill="url(#paint0_linear_1839_2268)"></path><path d="M22.4696 19.1611C22.4696 19.4411 22.4196 19.7311 22.3196 20.0111C22.2896 20.0911 22.2596 20.1711 22.2196 20.2511C22.0496 20.6111 21.8296 20.9511 21.5396 21.2711C21.0496 21.8111 20.5096 22.2011 19.8996 22.4511C19.8896 22.4511 19.8796 22.4611 19.8696 22.4611C19.2796 22.7011 18.6396 22.8311 17.9496 22.8311C16.9296 22.8311 15.8396 22.5911 14.6896 22.1011C13.5396 21.6111 12.3896 20.9511 11.2496 20.1211C10.8596 19.8311 10.4696 19.5411 10.0996 19.2311L13.3696 15.9611C13.6496 16.1711 13.8996 16.3311 14.1096 16.4411C14.1596 16.4611 14.2196 16.4911 14.2896 16.5211C14.3696 16.5511 14.4496 16.5611 14.5396 16.5611C14.7096 16.5611 14.8396 16.5011 14.9496 16.3911L15.7096 15.6411C15.9596 15.3911 16.1996 15.2011 16.4296 15.0811C16.6596 14.9411 16.8896 14.8711 17.1396 14.8711C17.3296 14.8711 17.5296 14.9111 17.7496 15.0011C17.9696 15.0911 18.1996 15.2211 18.4496 15.3911L21.7596 17.7411C22.0196 17.9211 22.1996 18.1311 22.3096 18.3811C22.4096 18.6311 22.4696 18.8811 22.4696 19.1611Z" fill="url(#paint1_linear_1839_2268)"></path><defs><linearGradient id="paint0_linear_1839_2268" x1="4.82079" y1="-6.7588" x2="15.7097" y2="-2.73501" gradientUnits="userSpaceOnUse"><stop stop-color="#00A3FF"></stop><stop offset="1" stop-color="#0045FF"></stop></linearGradient><linearGradient id="paint1_linear_1839_2268" x1="13.1716" y1="9.81318" x2="21.9777" y2="17.981" gradientUnits="userSpaceOnUse"><stop stop-color="#00A3FF"></stop><stop offset="1" stop-color="#0045FF"></stop></linearGradient></defs></svg>