<svg width="20" height="19" viewBox="0 0 20 19" fill="none" xmlns="http://www.w3.org/2000/svg">
<path d="M9.65125 0C4.34306 0 0 4.34306 0 9.65125C0 13.6324 2.41282 17.0103 5.79076 18.458C5.79076 17.7342 5.79075 17.0103 5.91139 16.2865C6.15267 15.442 7.11779 10.9783 7.11779 10.9783C7.11779 10.9783 6.75589 10.3751 6.75589 9.40997C6.75589 7.96229 7.60037 6.87652 8.5655 6.87652C9.40998 6.87652 9.89253 7.47972 9.89253 8.32421C9.89253 9.16869 9.28933 10.4957 9.04805 11.7021C8.80677 12.6673 9.53062 13.5118 10.6164 13.5118C12.426 13.5118 13.6324 11.2196 13.6324 8.32421C13.6324 6.15267 12.1847 4.58435 9.65125 4.58435C6.75588 4.58435 4.94628 6.75588 4.94628 9.16869C4.94628 10.0132 5.18756 10.6164 5.54948 11.0989C5.67012 11.3402 5.79075 11.3402 5.67011 11.5815C5.67011 11.7021 5.54947 12.1847 5.42883 12.3054C5.30819 12.5466 5.18756 12.6673 4.94628 12.5466C3.61923 11.9434 3.01602 10.4957 3.01602 8.80677C3.01602 6.03203 5.30819 2.77474 9.89253 2.77474C13.6324 2.77474 16.0452 5.42883 16.0452 8.32421C16.0452 12.0641 13.9943 14.9594 10.8577 14.9594C9.7719 14.9594 8.80677 14.3562 8.44485 13.753C8.44485 13.753 7.84164 15.9246 7.721 16.4071C7.47972 17.131 7.11781 17.8548 6.75589 18.458C7.60037 18.6993 8.56548 18.8199 9.53061 18.8199C14.8388 18.8199 19.1819 14.4769 19.1819 9.16869C19.3025 4.34307 14.9594 0 9.65125 0Z" fill="#002041"/>
</svg>
