<svg width="18" height="20" viewBox="0 0 18 20" fill="none" xmlns="http://www.w3.org/2000/svg">
<path d="M6.63327 7.60029V6.84886C6.37583 6.81447 6.11411 6.79297 5.8438 6.79297C2.62156 6.78874 0 9.41246 0 12.6417C0 14.6213 0.986839 16.3734 2.49713 17.4341C1.52316 16.3906 0.926769 14.9863 0.926769 13.449C0.926769 10.267 3.47539 7.6733 6.63327 7.60029Z" fill="#25F4EE"/>
<path d="M6.77476 16.1205C8.21212 16.1205 9.38773 14.974 9.43925 13.5483L9.44355 0.807314H11.769C11.7218 0.545365 11.6961 0.274832 11.6961 0H8.52104L8.51674 12.741C8.46529 14.1666 7.28961 15.3132 5.85229 15.3132C5.40606 15.3132 4.98559 15.2015 4.6123 15.004C5.09285 15.6782 5.88232 16.1205 6.77476 16.1205Z" fill="#25F4EE"/>
<path d="M16.115 5.1288V4.4203C15.2269 4.4203 14.4031 4.15833 13.708 3.70312C14.3258 4.4117 15.1625 4.92703 16.115 5.1288Z" fill="#25F4EE"/>
<path d="M13.7075 3.70326C13.0295 2.92603 12.622 1.91259 12.622 0.804688H11.7725C11.9912 2.01566 12.7121 3.05487 13.7075 3.70326Z" fill="#FE2C55"/>
<path d="M5.84844 9.96808C4.37676 9.96808 3.17969 11.1662 3.17969 12.6391C3.17969 13.6654 3.7632 14.5586 4.61274 15.0052C4.29524 14.5672 4.10646 14.0304 4.10646 13.4464C4.10646 11.9735 5.30353 10.7754 6.77523 10.7754C7.04982 10.7754 7.31582 10.8226 7.56468 10.8999V7.65354C7.30722 7.61915 7.04553 7.59766 6.77523 7.59766C6.72801 7.59766 6.68511 7.60195 6.63791 7.60195V10.0926C6.38476 10.0153 6.12303 9.96808 5.84844 9.96808Z" fill="#FE2C55"/>
<path d="M16.1155 5.13281V7.60197C14.4679 7.60197 12.9404 7.07382 11.6961 6.18059V12.6434C11.6961 15.8684 9.07459 18.4964 5.84802 18.4964C4.60375 18.4964 3.44529 18.1014 2.49707 17.4358C3.56543 18.5823 5.08859 19.3038 6.77483 19.3038C9.99703 19.3038 12.6229 16.68 12.6229 13.4507V6.98791C13.8672 7.88113 15.3946 8.40929 17.0422 8.40929V5.23162C16.7204 5.23162 16.4115 5.19723 16.1155 5.13281Z" fill="#FE2C55"/>
<path d="M11.6961 12.6395V6.17672C12.9405 7.06995 14.4679 7.5981 16.1155 7.5981V5.12894C15.163 4.92716 14.3263 4.41183 13.7085 3.70326C12.713 3.05487 11.9965 2.01566 11.7691 0.804688H9.4436L9.4393 13.5456C9.38785 14.9713 8.21217 16.1179 6.77487 16.1179C5.8824 16.1179 5.09722 15.6755 4.60809 15.0057C3.75855 14.5547 3.17503 13.6659 3.17503 12.6395C3.17503 11.1666 4.37211 9.96853 5.84378 9.96853C6.11838 9.96853 6.3844 10.0157 6.63326 10.0931V7.6024C3.47538 7.67112 0.926758 10.2648 0.926758 13.4468C0.926758 14.9842 1.52315 16.3841 2.49711 17.4319C3.44534 18.0975 4.6038 18.4926 5.84808 18.4926C9.07033 18.4926 11.6961 15.8645 11.6961 12.6395Z" fill="#002041"/>
</svg>
