<svg width="20" height="16" viewBox="0 0 20 16" fill="none" xmlns="http://www.w3.org/2000/svg">
<path d="M19.3025 1.80961C18.5787 2.17153 17.8548 2.29217 17.0103 2.41281C17.8548 1.93025 18.458 1.20641 18.6993 0.241281C17.9755 0.723844 17.131 0.965125 16.1659 1.20641C15.442 0.482563 14.3562 0 13.2705 0C10.737 0 8.80677 2.41281 9.40997 4.82563C6.15268 4.70499 3.2573 3.13666 1.20641 0.723845C0.120641 2.53345 0.723844 4.82563 2.41281 6.03203C1.80961 6.03203 1.20641 5.79075 0.603203 5.54947C0.603203 7.35908 1.93025 9.04805 3.73986 9.53061C3.13666 9.65125 2.53345 9.7719 1.93025 9.65125C2.41281 11.2196 3.8605 12.426 5.67011 12.426C4.22242 13.5118 2.05089 14.115 0 13.8737C1.80961 14.9594 3.8605 15.6833 6.03203 15.6833C13.3911 15.6833 17.4929 9.53061 17.2516 3.8605C18.0961 3.37794 18.8199 2.65409 19.3025 1.80961Z" fill="#002041"/>
</svg>
