<svg xmlns="http://www.w3.org/2000/svg" xmlns:i="http://ns.adobe.com/AdobeIllustrator/10.0/" id="Layer_1" viewBox="0 0 746.9 245.5"><defs><style></style></defs><path class="st1" d="M22.3,0h200.9c12.3,0,22.3,10,22.3,22.3v200.9c0,12.3-10,22.3-22.3,22.3H22.3c-12.3,0-22.3-10-22.3-22.3V22.3C0,10,10,0,22.3,0Z"></path><g><path d="M101.9,76.8c-1.9.1-2.7.8-4.4,3.4-11.3,17.2-43,65.8-48,73.9-4.2,6.7-5.8,12.1-4.5,17.5,1.1,5,5,8.5,11.1,9.8,1.5.2,3-.3,4-1.6,8.2-10.1,54.2-71.9,62.8-83.5,1.2-1.6.9-2.2.2-3.6-1.6-3.2-7.6-9.8-12.4-12.9-3.2-2.1-6.3-3-8.5-3s-.4,0-.5,0"></path><path d="M207.1,177.2c-9.6-20.6-56.1-116.5-66.2-138.6-5.2-11.4-10.6-25.7-15.5-38.6h-57.9c.8,19.5,1.1,29.4-2,38.6-5.5,16.2-23.5,33.2-35.9,46.4-4.3,4.5,13.1,16.7,31.5,2.3,6.7-5.2,17.2-15.6,25.8-22.3,3.9-3.1,8.9-4.5,14-3.7,7.1,1,11.9,4.3,16.9,10.2,5,6,9.8,14.2,16.3,24.8,12.2,20,26,42.6,40.7,66,7.5,11.9,17.5,16.9,31.1,16.5,1.3,0,1.5-.8,1.1-1.6Z"></path></g><path class="st0" d="M432.8,28.8c2.8-4.4,6.4-6.5,10.6-6.5s7.5,1.2,9.8,3.7c2.3,2.5,3.4,5.3,3.4,8.5s-.8,6-2.3,8.5l-68.1,95v72.3c0,3.6-1.2,6.6-3.7,9.1-2.5,2.5-5.5,3.7-9.1,3.7s-6.7-1.2-9.2-3.7c-2.6-2.4-3.8-5.5-3.8-9.1v-72.3l-67.8-95c-1.5-2.5-2.3-5.3-2.3-8.5s1.1-6.1,3.4-8.5c2.3-2.5,5.5-3.7,9.8-3.7s7.8,2.2,10.6,6.5l59.3,86.2,59.3-86.2Z"></path><path class="st0" d="M471,189c8.1,7.6,19.5,11.3,34,11.3s26.8-2.4,36.6-7.4c3.4-1.7,6.3-2.5,8.8-2.5s4.8,1,7.1,3.1c2.3,2.1,3.4,4.4,3.4,7.1,0,4.9-2,8.5-6.1,10.6-4.1,2.2-7.7,4-10.9,5.5-3.2,1.5-6.7,2.8-10.5,4-8.5,2.4-18.3,3.7-29.5,3.7-23.3,0-41.3-6.5-54.1-19.6-12.9-13-19.3-31.6-19.3-55.6s5.4-38.1,16.2-51.9c12.1-15.5,29.3-23.3,51.6-23.3s37.9,7.2,50.2,21.5c11.5,13.4,17.3,30.1,17.3,49.9s-1.2,6.6-3.5,9.1c-2.4,2.5-5.5,3.7-9.5,3.7h-96.1c1.5,12.8,6.3,23.1,14.5,30.6M498.2,96c-16.8,0-29.1,7.5-36.9,22.4-2.8,5.3-4.4,11.6-4.8,19h83.6c-.8-13.4-5.7-24-14.7-31.8-7.6-6.4-16.6-9.6-27.2-9.6"></path><path class="st0" d="M593.7,16.9c2.5-2.5,5.5-3.7,9.2-3.7s6.8,1.2,9.2,3.7c2.5,2.5,3.7,5.6,3.7,9.4v184c0,3.6-1.2,6.6-3.7,9.1-2.5,2.5-5.5,3.7-9.2,3.7s-6.8-1.2-9.2-3.7c-2.4-2.4-3.7-5.5-3.7-9.1V26.3c0-3.8,1.2-6.9,3.7-9.4"></path><path class="st0" d="M649,16.9c2.5-2.5,5.5-3.7,9.2-3.7s6.7,1.2,9.2,3.7c2.5,2.5,3.7,5.6,3.7,9.4v184c0,3.6-1.2,6.6-3.7,9.1-2.5,2.5-5.5,3.7-9.2,3.7s-6.8-1.2-9.2-3.7c-2.4-2.4-3.7-5.5-3.7-9.1V26.3c0-3.8,1.2-6.9,3.7-9.4"></path><path d="M22.2,201v.4c0,11.9,10,21.8,21.9,21.9,0,0,156.8.1,156.9.1,12.2,0,22.2-10.1,22.3-22v-.4s-201,0-201,0Z"></path><g><path class="st0" d="M718.8,201.8c.3.3.4.6.4,1s-.1.7-.4.9c-.3.3-.6.4-1,.4h-6.4v18c0,.4-.1.7-.4,1-.3.3-.6.4-1,.4s-.7-.1-1-.4c-.3-.3-.4-.6-.4-1v-18h-6.4c-.4,0-.7-.1-.9-.4-.3-.3-.4-.6-.4-.9s.1-.7.4-1c.3-.3.6-.4.9-.4h15.7c.4,0,.7.1,1,.4Z"></path><path class="st0" d="M746.3,201.8c.4.4.6.9.6,1.5v18.8c0,.4-.1.7-.4,1-.3.3-.6.4-1,.4s-.7-.1-1-.4c-.3-.3-.4-.6-.4-1v-17.9l-7.3,18c-.2.4-.4.7-.8,1-.4.2-.8.4-1.2.4s-.9-.1-1.2-.4c-.4-.2-.6-.6-.8-1l-7.3-18v17.9c0,.4-.1.7-.4,1-.3.3-.6.4-1,.4s-.7-.1-1-.4c-.3-.3-.4-.6-.4-1v-18.8c0-.6.2-1.1.6-1.5.4-.4.9-.6,1.4-.6h1c.4,0,.8.1,1.1.4.3.3.6.6.8.9l7.1,17.8,7.1-17.8c.2-.4.4-.7.8-.9.3-.3.7-.4,1.1-.4h1c.6,0,1,.2,1.4.6Z"></path></g><metadata></metadata><metadata></metadata></svg>