<svg width="20" height="14" viewBox="0 0 20 14" fill="none" xmlns="http://www.w3.org/2000/svg">
<path d="M18.82 2.05089C18.5787 1.20641 17.9755 0.603204 17.131 0.361922C15.6833 2.15722e-07 9.53061 0 9.53061 0C9.53061 0 3.49859 2.15722e-07 1.93026 0.361922C1.08577 0.603204 0.482559 1.20641 0.241278 2.05089C-3.68526e-06 3.61922 0 6.75588 0 6.75588C0 6.75588 3.66728e-06 9.89254 0.361926 11.4609C0.603207 12.3053 1.2064 12.9086 2.05089 13.1498C3.49858 13.5118 9.65125 13.5118 9.65125 13.5118C9.65125 13.5118 15.6833 13.5118 17.2516 13.1498C18.0961 12.9086 18.6993 12.3053 18.9406 11.4609C19.3025 9.89254 19.3025 6.75588 19.3025 6.75588C19.3025 6.75588 19.3025 3.61922 18.82 2.05089ZM7.721 9.65125V3.8605L12.7879 6.75588L7.721 9.65125Z" fill="#002041"/>
</svg>
