<svg width="11" height="11" viewBox="0 0 11 11" fill="none" xmlns="http://www.w3.org/2000/svg">
<path d="M0.140885 8.07813C0.241146 8.18555 0.364681 8.24105 0.51149 8.24463C0.658301 8.24821 0.781836 8.19987 0.882096 8.09961L5.50124 3.72754L10.1204 8.09961C10.2206 8.19987 10.3442 8.24821 10.491 8.24463C10.6378 8.24105 10.7613 8.18555 10.8616 8.07813C10.9618 7.9707 11.0084 7.84538 11.0012 7.70215C10.9941 7.55892 10.9404 7.43718 10.8401 7.33692L5.86647 2.62109C5.81634 2.57813 5.75905 2.54411 5.6946 2.51904C5.63014 2.49398 5.56569 2.48145 5.50124 2.48145C5.43678 2.48145 5.37412 2.49398 5.31325 2.51904C5.25238 2.54411 5.19329 2.57813 5.136 2.62109L0.162369 7.33691C0.0621095 7.43717 0.00839857 7.55892 0.00123646 7.70215C-0.00592469 7.84538 0.0406251 7.9707 0.140885 8.07813Z" fill="#046BD2"/>
</svg>
