<svg xmlns="http://www.w3.org/2000/svg" width="244" height="64" viewBox="0 0 244 64" fill="none"><g clip-path="url(#clip0_295_7633)"><path d="M116.184 48.738C116.184 50.9729 114.599 52.4585 112.208 52.4585H109.055V45.0176H112.208C114.599 45.0176 116.184 46.5075 116.184 48.738ZM114.902 48.738C114.902 47.1398 113.806 46.0744 112.138 46.0744H110.289V51.4017H112.138C113.802 51.4017 114.902 50.3362 114.902 48.738Z" fill="url(#paint0_linear_295_7633)"></path><path d="M120.633 45.0176H121.867V52.4585H120.633V45.0176Z" fill="url(#paint1_linear_295_7633)"></path><path d="M133.56 48.1139V51.6871C132.837 52.2069 131.581 52.5577 130.446 52.5577C127.96 52.5577 126.314 51.0201 126.314 48.7203C126.314 46.4205 127.969 44.9219 130.446 44.9219C131.564 44.9219 132.746 45.2857 133.444 45.8314V47.0658C132.768 46.4378 131.65 46.0177 130.663 46.0177C128.822 46.0177 127.588 47.1048 127.588 48.729C127.588 50.3531 128.801 51.4619 130.624 51.4619C131.174 51.4619 131.789 51.3147 132.339 51.0808V49.1707H129.922V48.1139H133.565H133.56Z" fill="url(#paint2_linear_295_7633)"></path><path d="M138.225 45.0176H139.459V52.4585H138.225V45.0176Z" fill="url(#paint3_linear_295_7633)"></path><path d="M150.503 46.0744H147.636V52.4585H146.402V46.0744H143.521V45.0176H150.503V46.0744Z" fill="url(#paint4_linear_295_7633)"></path><path d="M160.66 52.3412V52.4581H159.347L158.516 50.8599H154.587L153.756 52.4581H152.443V52.3412L156.489 44.8223H156.614L160.66 52.3412ZM157.957 49.8074L156.558 47.1134L155.146 49.8074H157.957Z" fill="url(#paint5_linear_295_7633)"></path><path d="M170.476 51.4017V52.4585H164.533V45.0176H165.768V51.4017H170.48H170.476Z" fill="url(#paint6_linear_295_7633)"></path><path d="M186.531 52.3412V52.4581H185.218L184.387 50.8599H180.458L179.627 52.4581H178.314V52.3412L182.36 44.8223H182.485L186.531 52.3412ZM183.828 49.8074L182.429 47.1134L181.017 49.8074H183.828Z" fill="url(#paint7_linear_295_7633)"></path><path d="M196.943 48.1139V51.6871C196.22 52.2069 194.964 52.5577 193.829 52.5577C191.343 52.5577 189.697 51.0201 189.697 48.7203C189.697 46.4205 191.352 44.9219 193.829 44.9219C194.947 44.9219 196.129 45.2857 196.826 45.8314V47.0658C196.151 46.4378 195.033 46.0177 194.046 46.0177C192.205 46.0177 190.971 47.1048 190.971 48.729C190.971 50.3531 192.183 51.4619 194.007 51.4619C194.557 51.4619 195.172 51.3147 195.722 51.0808V49.1707H193.305V48.1139H196.948H196.943Z" fill="url(#paint8_linear_295_7633)"></path><path d="M207.944 51.4017V52.4585H201.607V45.0176H207.836V46.0744H202.842V48.11H207.524V49.1668H202.842V51.4017H207.944Z" fill="url(#paint9_linear_295_7633)"></path><path d="M219.443 45.0172V52.653H219.326L213.578 47.278V52.4581H212.383V44.8223H212.5L218.247 50.1972V45.0172H219.443Z" fill="url(#paint10_linear_295_7633)"></path><path d="M223.9 48.7203C223.9 46.4378 225.477 44.9219 227.829 44.9219C228.838 44.9219 229.903 45.2554 230.54 45.7751V47.0182C229.925 46.4205 228.933 46.0177 228.054 46.0177C226.33 46.0177 225.187 47.1048 225.187 48.729C225.187 50.3531 226.334 51.4619 228.067 51.4619C228.946 51.4619 229.977 51.0331 230.644 50.3965V51.6482C229.968 52.1982 228.842 52.5577 227.833 52.5577C225.473 52.5577 223.905 51.0201 223.905 48.7203H223.9Z" fill="url(#paint11_linear_295_7633)"></path><path d="M241.597 45.0176V45.1345L238.444 49.5696V52.4585H237.21V49.5696L234.057 45.1345V45.0176H235.36L237.829 48.5431L240.285 45.0176H241.597Z" fill="url(#paint12_linear_295_7633)"></path><path d="M15.7871 18.4539C15.7784 22.9107 12.4434 26.2154 7.96934 26.2024C3.50392 26.1894 0.00867771 22.7331 1.54e-05 18.3153C-0.00864691 14.1054 3.63819 10.5712 7.96934 10.5929C12.2659 10.6102 15.7914 14.1574 15.7871 18.4539Z" fill="url(#paint13_linear_295_7633)"></path><path d="M67.7656 27.7058C67.6876 31.8421 64.0971 35.2594 59.9219 35.1641C55.582 35.0688 52.0651 31.4956 52.1258 27.2337C52.1864 23.0845 55.8289 19.6455 60.1081 19.7019C64.4392 19.7582 67.8479 23.3184 67.7656 27.7015V27.7058Z" fill="url(#paint14_linear_295_7633)"></path><path d="M32.0642 41.6561C27.7504 41.5868 24.4544 38.1435 24.5367 33.7951C24.6146 29.5419 28.0752 26.2675 32.467 26.2892C36.5686 26.3108 40.1505 29.9403 40.0682 33.99C39.9816 38.3038 36.4084 41.7254 32.0685 41.6561H32.0642Z" fill="url(#paint15_linear_295_7633)"></path><path d="M55.4431 39.1441C55.5557 38.9362 55.7809 38.8063 56.0192 38.8193C57.0933 38.8756 57.717 39.2394 57.7473 40.608C57.7819 42.3578 59.025 43.5662 60.385 44.4974C61.9572 45.5759 62.1261 46.9532 61.6497 48.6163C60.6795 51.9686 57.1496 54.1862 53.728 53.5668C50.0725 52.9085 47.7683 50.0413 47.9892 46.4854C48.0498 45.5455 48.3184 44.9695 49.3059 44.558C52.8401 43.0854 53.728 42.2625 55.4431 39.1441Z" fill="url(#paint16_linear_295_7633)"></path><path d="M44.273 13.5555C41.2715 13.5685 38.7118 11.104 38.6858 8.17184C38.6555 5.11404 41.2758 2.53701 44.4289 2.52834C47.3351 2.51968 49.8169 5.00576 49.8125 7.9163C49.8082 11.0001 47.3091 13.5425 44.2773 13.5555H44.273Z" fill="url(#paint17_linear_295_7633)"></path><path d="M49.2536 22.5686C49.2623 25.6047 46.9408 28.0085 43.9826 28.0302C41.0504 28.0518 38.6986 25.7346 38.6856 22.8068C38.6726 19.8183 41.0504 17.4535 44.0519 17.4708C47.0014 17.4881 49.2406 19.684 49.2493 22.5686H49.2536Z" fill="url(#paint18_linear_295_7633)"></path><path d="M26.8092 23.292C25.7004 24.1452 24.6176 24.9768 23.5392 25.8084C23.2577 26.0249 22.8765 26.0422 22.5777 25.856C21.5512 25.215 20.4554 24.5307 19.3596 23.8463C19.0391 23.6471 18.8962 23.2573 19.0088 22.8978C19.3423 21.8454 19.7364 20.7842 19.8664 19.6971C19.992 18.662 19.8534 17.5922 19.7754 16.6566C19.7451 16.3145 19.9357 15.9896 20.2475 15.8424C22.1012 14.9631 23.9247 14.1012 25.7481 13.235C26.7659 13.0661 26.9955 13.7331 26.8525 14.8332C26.6706 16.2149 26.5753 17.6311 26.6533 19.0214C26.7183 20.1389 26.9695 21.2477 27.1774 22.3261C27.2467 22.6899 27.1037 23.0667 26.8092 23.2963V23.292Z" fill="url(#paint19_linear_295_7633)"></path><path d="M16.6575 28.0042C19.3818 27.9739 21.4608 30.0312 21.4867 32.7902C21.5127 35.3542 19.3861 37.5068 16.7788 37.5588C14.0631 37.6151 11.8759 35.5361 11.8499 32.8638C11.8196 30.2348 14.0025 28.0346 16.6575 28.0042Z" fill="url(#paint20_linear_295_7633)"></path><path d="M23.8855 6.68201C23.8855 9.25039 21.5856 11.4203 18.9003 11.3813C16.4489 11.3467 14.4176 9.25905 14.4219 6.77297C14.4219 4.25656 16.5312 2.10831 19.0259 2.07366C21.6549 2.03901 23.8855 4.15262 23.8898 6.68201H23.8855Z" fill="url(#paint21_linear_295_7633)"></path><path d="M34.9008 48.019C34.9008 45.4203 36.9321 43.3933 39.5135 43.4063C42.0039 43.4236 44.1002 45.4809 44.0915 47.8977C44.0785 50.4834 41.9043 52.636 39.3316 52.61C36.8152 52.584 34.8965 50.6004 34.8965 48.019H34.9008Z" fill="url(#paint22_linear_295_7633)"></path><path d="M53.4286 18.0125C53.0128 18.2118 52.5191 18.1208 52.1942 17.7916C51.6832 17.2632 51.1028 16.6699 50.5874 16.0289C50.3232 15.6997 50.1803 15.141 50.2192 14.7122C50.5051 11.4941 54.2472 8.80883 57.4306 9.49315C59.1414 9.8613 60.5187 11.4075 60.5447 12.9841C60.5664 14.5606 59.3883 15.6174 57.5129 16.2151C56.1313 16.6569 54.8276 17.3455 53.4286 18.0125Z" fill="url(#paint23_linear_295_7633)"></path><path d="M43.8057 36.4629C43.9833 35.458 44.0569 34.4359 44.1262 33.4137C44.2215 32.0321 45.0097 31.7246 47.0757 31.9498C49.0897 32.175 51.0257 33.6736 51.4415 35.3281C51.866 37.0216 51.108 38.871 49.5358 39.9884C47.7427 41.2574 45.85 41.2964 44.0959 40.1617C43.3076 39.6506 43.0564 39.1438 43.3899 38.1563C43.5761 37.6063 43.7017 37.0389 43.8013 36.4629H43.8057Z" fill="url(#paint24_linear_295_7633)"></path><path d="M27.4518 4.78513C27.4908 2.41166 29.4571 0.445312 31.7916 0.445312C34.1737 0.445312 36.0188 2.26873 36.0101 4.62055C36.0015 7.08064 34.0005 9.18125 31.679 9.16826C29.2795 9.1596 27.4128 7.21491 27.4518 4.7808V4.78513Z" fill="url(#paint25_linear_295_7633)"></path><path d="M37.234 17.1678C37.234 17.8175 37.2816 18.4672 37.221 19.1125C37.0651 20.8103 35.6401 22.0924 33.9553 22.0967C32.1709 22.101 30.7459 20.7973 30.6593 18.9999C30.5987 17.7049 30.5683 16.4056 30.6203 15.1105C30.6939 13.3391 32.1709 11.9315 33.86 11.9141C35.4625 11.9012 37.0781 13.3824 37.2253 15.0586C37.286 15.7559 37.234 16.4619 37.234 17.1635V17.1678Z" fill="url(#paint26_linear_295_7633)"></path><path d="M49.5622 58.6261C49.5622 59.2714 49.6011 59.9211 49.5535 60.5621C49.4366 62.195 48.0896 63.4943 46.5044 63.5506C44.8672 63.6069 43.3426 62.4808 43.178 60.8696C43.0308 59.4317 43.0351 57.9591 43.1564 56.5168C43.2993 54.8233 44.8888 53.498 46.4481 53.5586C48.1545 53.6236 49.4755 55.0096 49.5578 56.8503C49.5838 57.4394 49.5578 58.0327 49.5578 58.6261H49.5622Z" fill="url(#paint27_linear_295_7633)"></path><path d="M67.3287 41.9079C66.025 42.7958 64.2709 42.6182 63.1535 41.5051C62.9846 41.3362 62.807 41.1673 62.6164 40.9941C61.4427 39.9199 61.7155 39.0753 63.1881 38.417C63.7685 38.1571 64.3142 37.7717 64.8123 37.3645C65.8821 36.4896 66.9822 36.0955 68.169 37.0873C69.2301 37.9709 69.5203 39.7943 68.5544 40.9074C68.2772 41.2279 67.8311 41.5701 67.3331 41.9079H67.3287Z" fill="url(#paint28_linear_295_7633)"></path><path d="M106.524 35.4677H102.522L101.968 32.189C100.235 34.5452 97.8663 35.7233 94.8605 35.7233C92.8725 35.7233 91.101 35.2772 89.5375 34.3806C87.9783 33.4884 86.7569 32.1934 85.8776 30.5086C84.9984 28.8194 84.5566 26.8401 84.5566 24.5705C84.5566 22.301 85.0028 20.404 85.8993 18.7148C86.7915 17.0257 88.0216 15.722 89.5808 14.7994C91.14 13.8769 92.9028 13.4135 94.8605 13.4135C96.45 13.4135 97.8403 13.7037 99.0314 14.2884C100.222 14.8687 101.188 15.67 101.925 16.6922V5.66504H106.524V35.4677ZM101.968 24.6528C101.968 22.4656 101.388 20.6985 100.222 19.3515C99.0574 18.0045 97.5241 17.3288 95.6227 17.3288C93.7214 17.3288 92.1881 18.0045 91.0231 19.3515C89.858 20.6985 89.2776 22.4396 89.2776 24.5662C89.2776 26.6928 89.858 28.4772 91.0231 29.8242C92.1881 31.1712 93.7214 31.8469 95.6227 31.8469C97.5241 31.8469 99.0574 31.1799 100.222 29.8459C101.388 28.5119 101.968 26.7794 101.968 24.6528Z" fill="#030E33"></path><path d="M116.381 14.7991C117.984 13.8765 119.82 13.4131 121.895 13.4131C123.969 13.4131 125.845 13.8375 127.452 14.6908C129.054 15.544 130.319 16.7481 131.241 18.3073C132.164 19.8665 132.64 21.6986 132.666 23.7992C132.666 24.3666 132.623 24.947 132.541 25.5447H116.108V25.8002C116.221 27.7016 116.819 29.2045 117.897 30.3133C118.976 31.4177 120.409 31.9721 122.198 31.9721C123.619 31.9721 124.81 31.6386 125.775 30.9716C126.741 30.3046 127.378 29.3604 127.69 28.139H132.29C131.891 30.3522 130.821 32.167 129.076 33.5876C127.33 35.0082 125.152 35.7142 122.54 35.7142C120.271 35.7142 118.291 35.2508 116.602 34.3282C114.913 33.4057 113.609 32.1064 112.687 30.4345C111.764 28.7584 111.301 26.8137 111.301 24.6005C111.301 22.3872 111.747 20.3949 112.643 18.7058C113.536 17.0166 114.787 15.7129 116.39 14.7904L116.381 14.7991ZM126.087 18.4589C125.022 17.5667 123.684 17.1162 122.064 17.1162C120.561 17.1162 119.261 17.5797 118.17 18.4979C117.079 19.4204 116.446 20.6461 116.277 22.1793H127.984C127.785 20.5898 127.153 19.3468 126.092 18.4546L126.087 18.4589Z" fill="#030E33"></path><path d="M139.35 13.6689L145.353 30.5258L151.269 13.6689H156.124L148.077 35.4677H142.459L134.412 13.6689H139.35Z" fill="#030E33"></path><path d="M164.129 7.58301V13.6726H169.408V17.7179H164.129V29.0829C164.129 29.9361 164.297 30.5381 164.64 30.8933C164.982 31.2484 165.562 31.426 166.385 31.426H169.876V35.4713H165.45C163.379 35.4713 161.872 34.9906 160.936 34.0247C160.001 33.0589 159.533 31.569 159.533 29.555V7.58301H164.133H164.129Z" fill="#030E33"></path><path d="M185.503 17.9698H183.459C181.557 17.9698 180.18 18.5891 179.327 19.8235C178.473 21.0579 178.049 22.6258 178.049 24.5272V35.4677H173.449V13.6689H177.538L178.049 16.9476C178.673 15.9255 179.483 15.1242 180.474 14.5438C181.466 13.9635 182.8 13.6689 184.476 13.6689H185.498V17.9698H185.503Z" fill="#030E33"></path><path d="M194.612 7.70902C194.612 8.50595 194.344 9.16428 193.802 9.68835C193.261 10.2124 192.594 10.4766 191.801 10.4766C191.009 10.4766 190.342 10.2124 189.8 9.68835C189.259 9.16428 188.99 8.50162 188.99 7.70902C188.99 6.91641 189.259 6.25375 189.8 5.72968C190.342 5.20561 191.009 4.94141 191.801 4.94141C192.594 4.94141 193.265 5.20561 193.802 5.72968C194.339 6.25375 194.612 6.91641 194.612 7.70902ZM194.105 13.6687V35.4674H189.506V13.6687H194.105Z" fill="#030E33"></path><path d="M200.255 30.4215C199.333 28.7324 198.869 26.7834 198.869 24.5658C198.869 22.3483 199.333 20.4426 200.255 18.7534C201.178 17.0643 202.481 15.7519 204.17 14.8164C205.86 13.8809 207.796 13.4131 209.983 13.4131C212.17 13.4131 214.106 13.8809 215.795 14.8164C217.484 15.7519 218.788 17.0643 219.711 18.7534C220.633 20.4426 221.092 22.3786 221.092 24.5658C221.092 26.753 220.629 28.7324 219.711 30.4215C218.788 32.1107 217.484 33.4144 215.795 34.3369C214.106 35.2594 212.17 35.7229 209.983 35.7229C207.796 35.7229 205.86 35.2594 204.17 34.3369C202.481 33.4144 201.178 32.1107 200.255 30.4215ZM216.41 24.5701C216.41 22.4435 215.821 20.7024 214.643 19.3554C213.465 18.0084 211.91 17.3328 209.983 17.3328C208.056 17.3328 206.505 18.0084 205.344 19.3554C204.179 20.7024 203.599 22.4435 203.599 24.5701C203.599 26.6967 204.179 28.4379 205.344 29.7849C206.509 31.1318 208.056 31.8075 209.983 31.8075C211.91 31.8075 213.465 31.1318 214.643 29.7849C215.821 28.4379 216.41 26.6967 216.41 24.5701Z" fill="#030E33"></path><path d="M230.994 31.0625C231.973 31.7858 233.242 32.1496 234.805 32.1496C236.196 32.1496 237.326 31.8854 238.188 31.3613C239.054 30.8372 239.487 30.1356 239.487 29.252C239.487 28.5157 239.288 27.9614 238.89 27.5932C238.491 27.2251 237.958 26.9609 237.291 26.8049C236.624 26.649 235.598 26.4844 234.203 26.3155C232.302 26.0903 230.734 25.7828 229.5 25.4016C228.265 25.0205 227.273 24.4098 226.52 23.5696C225.766 22.7337 225.389 21.6032 225.389 20.1869C225.389 18.8529 225.766 17.6662 226.52 16.6311C227.273 15.5959 228.309 14.7946 229.63 14.2273C230.951 13.6599 232.445 13.374 234.121 13.374C236.876 13.374 239.11 13.9847 240.826 15.2061C242.541 16.4275 243.472 18.1426 243.615 20.3558H239.145C239.032 19.364 238.534 18.5454 237.655 17.9087C236.776 17.2721 235.667 16.9516 234.333 16.9516C232.999 16.9516 231.921 17.2071 231.098 17.7182C230.275 18.2292 229.863 18.9222 229.863 19.8058C229.863 20.4598 230.071 20.9492 230.478 21.2741C230.89 21.5989 231.41 21.8284 232.033 21.954C232.657 22.0796 233.666 22.2312 235.056 22.4002C236.928 22.5994 238.504 22.9026 239.782 23.314C241.059 23.7255 242.082 24.3795 242.848 25.2717C243.615 26.1639 243.996 27.381 243.996 28.9099C243.996 30.2742 243.597 31.4696 242.805 32.5091C242.008 33.5442 240.917 34.3412 239.526 34.8912C238.136 35.4456 236.572 35.7228 234.844 35.7228C231.921 35.7228 229.56 35.0645 227.754 33.7435C225.952 32.4224 225.021 30.599 224.965 28.2732H229.391C229.478 29.408 230.011 30.3392 230.989 31.0625H230.994Z" fill="#030E33"></path></g><defs><linearGradient id="paint0_linear_295_7633" x1="216.06" y1="138.133" x2="136.882" y2="70.4544" gradientUnits="userSpaceOnUse"><stop stop-color="#193378"></stop><stop offset="1" stop-color="#4273FC"></stop></linearGradient><linearGradient id="paint1_linear_295_7633" x1="220.189" y1="133.308" x2="141.011" y2="65.6293" gradientUnits="userSpaceOnUse"><stop stop-color="#193378"></stop><stop offset="1" stop-color="#4273FC"></stop></linearGradient><linearGradient id="paint2_linear_295_7633" x1="224.103" y1="128.725" x2="144.925" y2="61.0468" gradientUnits="userSpaceOnUse"><stop stop-color="#193378"></stop><stop offset="1" stop-color="#4273FC"></stop></linearGradient><linearGradient id="paint3_linear_295_7633" x1="227.61" y1="124.616" x2="148.437" y2="56.9419" gradientUnits="userSpaceOnUse"><stop stop-color="#193378"></stop><stop offset="1" stop-color="#4273FC"></stop></linearGradient><linearGradient id="paint4_linear_295_7633" x1="231.669" y1="119.869" x2="152.496" y2="52.1943" gradientUnits="userSpaceOnUse"><stop stop-color="#193378"></stop><stop offset="1" stop-color="#4273FC"></stop></linearGradient><linearGradient id="paint5_linear_295_7633" x1="234.285" y1="116.81" x2="155.107" y2="49.1361" gradientUnits="userSpaceOnUse"><stop stop-color="#193378"></stop><stop offset="1" stop-color="#4273FC"></stop></linearGradient><linearGradient id="paint6_linear_295_7633" x1="238.721" y1="111.622" x2="159.544" y2="43.9479" gradientUnits="userSpaceOnUse"><stop stop-color="#193378"></stop><stop offset="1" stop-color="#4273FC"></stop></linearGradient><linearGradient id="paint7_linear_295_7633" x1="245.209" y1="104.033" x2="166.031" y2="36.3592" gradientUnits="userSpaceOnUse"><stop stop-color="#193378"></stop><stop offset="1" stop-color="#4273FC"></stop></linearGradient><linearGradient id="paint8_linear_295_7633" x1="250.862" y1="97.4198" x2="171.684" y2="29.7412" gradientUnits="userSpaceOnUse"><stop stop-color="#193378"></stop><stop offset="1" stop-color="#4273FC"></stop></linearGradient><linearGradient id="paint9_linear_295_7633" x1="255.426" y1="92.0799" x2="176.248" y2="24.4014" gradientUnits="userSpaceOnUse"><stop stop-color="#193378"></stop><stop offset="1" stop-color="#4273FC"></stop></linearGradient><linearGradient id="paint10_linear_295_7633" x1="260.151" y1="86.553" x2="180.973" y2="18.8742" gradientUnits="userSpaceOnUse"><stop stop-color="#193378"></stop><stop offset="1" stop-color="#4273FC"></stop></linearGradient><linearGradient id="paint11_linear_295_7633" x1="265.202" y1="80.6452" x2="186.024" y2="12.9666" gradientUnits="userSpaceOnUse"><stop stop-color="#193378"></stop><stop offset="1" stop-color="#4273FC"></stop></linearGradient><linearGradient id="paint12_linear_295_7633" x1="270.07" y1="74.9502" x2="190.892" y2="7.27166" gradientUnits="userSpaceOnUse"><stop stop-color="#193378"></stop><stop offset="1" stop-color="#4273FC"></stop></linearGradient><linearGradient id="paint13_linear_295_7633" x1="53.8406" y1="61.9084" x2="12.2615" y2="22.5382" gradientUnits="userSpaceOnUse"><stop stop-color="#193378"></stop><stop offset="1" stop-color="#4273FC"></stop></linearGradient><linearGradient id="paint14_linear_295_7633" x1="73.9635" y1="40.656" x2="32.3844" y2="1.28577" gradientUnits="userSpaceOnUse"><stop stop-color="#193378"></stop><stop offset="1" stop-color="#4273FC"></stop></linearGradient><linearGradient id="paint15_linear_295_7633" x1="57.5704" y1="57.9673" x2="15.9913" y2="18.597" gradientUnits="userSpaceOnUse"><stop stop-color="#193378"></stop><stop offset="1" stop-color="#4273FC"></stop></linearGradient><linearGradient id="paint16_linear_295_7633" x1="61.9399" y1="53.3503" x2="20.3607" y2="13.9844" gradientUnits="userSpaceOnUse"><stop stop-color="#193378"></stop><stop offset="1" stop-color="#4273FC"></stop></linearGradient><linearGradient id="paint17_linear_295_7633" x1="76.2109" y1="38.2777" x2="34.6318" y2="-1.08818" gradientUnits="userSpaceOnUse"><stop stop-color="#193378"></stop><stop offset="1" stop-color="#4273FC"></stop></linearGradient><linearGradient id="paint18_linear_295_7633" x1="68.7438" y1="46.1647" x2="27.1647" y2="6.79449" gradientUnits="userSpaceOnUse"><stop stop-color="#193378"></stop><stop offset="1" stop-color="#4273FC"></stop></linearGradient><linearGradient id="paint19_linear_295_7633" x1="60.8564" y1="54.4936" x2="19.2773" y2="15.1277" gradientUnits="userSpaceOnUse"><stop stop-color="#193378"></stop><stop offset="1" stop-color="#4273FC"></stop></linearGradient><linearGradient id="paint20_linear_295_7633" x1="50.8173" y1="65.1006" x2="9.23823" y2="25.7304" gradientUnits="userSpaceOnUse"><stop stop-color="#193378"></stop><stop offset="1" stop-color="#4273FC"></stop></linearGradient><linearGradient id="paint21_linear_295_7633" x1="64.9708" y1="50.1495" x2="23.3917" y2="10.7836" gradientUnits="userSpaceOnUse"><stop stop-color="#193378"></stop><stop offset="1" stop-color="#4273FC"></stop></linearGradient><linearGradient id="paint22_linear_295_7633" x1="53.9796" y1="61.7618" x2="12.4005" y2="22.3959" gradientUnits="userSpaceOnUse"><stop stop-color="#193378"></stop><stop offset="1" stop-color="#4273FC"></stop></linearGradient><linearGradient id="paint23_linear_295_7633" x1="78.597" y1="35.7616" x2="37.0135" y2="-3.60858" gradientUnits="userSpaceOnUse"><stop stop-color="#193378"></stop><stop offset="1" stop-color="#4273FC"></stop></linearGradient><linearGradient id="paint24_linear_295_7633" x1="63.2006" y1="52.016" x2="21.6215" y2="12.6502" gradientUnits="userSpaceOnUse"><stop stop-color="#193378"></stop><stop offset="1" stop-color="#4273FC"></stop></linearGradient><linearGradient id="paint25_linear_295_7633" x1="71.9111" y1="42.8213" x2="30.332" y2="3.45114" gradientUnits="userSpaceOnUse"><stop stop-color="#193378"></stop><stop offset="1" stop-color="#4273FC"></stop></linearGradient><linearGradient id="paint26_linear_295_7633" x1="66.8028" y1="48.2136" x2="25.2237" y2="8.84769" gradientUnits="userSpaceOnUse"><stop stop-color="#193378"></stop><stop offset="1" stop-color="#4273FC"></stop></linearGradient><linearGradient id="paint27_linear_295_7633" x1="51.953" y1="63.9014" x2="10.3739" y2="24.5356" gradientUnits="userSpaceOnUse"><stop stop-color="#193378"></stop><stop offset="1" stop-color="#4273FC"></stop></linearGradient><linearGradient id="paint28_linear_295_7633" x1="70.7157" y1="44.0822" x2="29.1366" y2="4.7163" gradientUnits="userSpaceOnUse"><stop stop-color="#193378"></stop><stop offset="1" stop-color="#4273FC"></stop></linearGradient><clipPath id="clip0_295_7633"><rect width="244" height="63.1093" fill="white" transform="translate(0 0.445312)"></rect></clipPath></defs></svg>