<svg width="18" height="24" viewBox="0 0 18 24" fill="none" xmlns="http://www.w3.org/2000/svg">
<path fill-rule="evenodd" clip-rule="evenodd" d="M13.8541 6.80469L13.9497 7.26037C14.1981 8.44536 15.4225 9.15257 16.5729 8.77524L17.0155 8.63011L17.6564 9.74023L17.3093 10.0508C16.4073 10.8585 16.4073 12.2728 17.3093 13.0805L17.6564 13.3911L17.0155 14.5012L16.5729 14.3561C15.4222 13.9787 14.1975 14.6857 13.9492 15.8709L13.8537 16.3266H12.5723L12.4767 15.8709C12.2285 14.6858 11.0031 13.9784 9.85261 14.3561L9.41046 14.5012L8.76953 13.3911L9.11659 13.0805C10.019 12.2728 10.019 10.8585 9.11659 10.0508L8.76953 9.74023L9.41046 8.63011L9.85261 8.77524C11.0032 9.15288 12.2278 8.44602 12.4763 7.26082L12.5723 6.80469H13.8541ZM14.2341 9.80784C13.2633 9.24739 12.0177 9.5812 11.4572 10.552C10.8968 11.5228 11.2305 12.7684 12.2013 13.3289C13.172 13.8893 14.4178 13.5554 14.9782 12.5847C15.5387 11.6139 15.2049 10.3684 14.2341 9.80784Z" fill="#012A80"/>
<path d="M13.5579 10.9813C13.4514 10.9199 13.3351 10.8906 13.2202 10.8906C12.9858 10.8906 12.7575 11.0122 12.6321 11.2294C12.5416 11.3861 12.5176 11.5687 12.5644 11.7436C12.6113 11.9184 12.7234 12.0646 12.8802 12.1551C13.2039 12.3419 13.619 12.2306 13.8059 11.907C13.9927 11.5834 13.8815 11.1682 13.5579 10.9813Z" fill="#012A80"/>
<path fill-rule="evenodd" clip-rule="evenodd" d="M11.5655 0C12.6865 0 13.5987 0.912187 13.5987 2.0332V5.44922H12.3651C12.0444 5.44923 11.7674 5.67443 11.7016 5.98828L11.4934 6.98302C11.4103 7.37865 11.0026 7.61391 10.6185 7.48783L9.65355 7.17097C9.3487 7.07088 9.0157 7.19803 8.85532 7.47566L7.66406 9.53906C7.50368 9.81682 7.55983 10.1694 7.79883 10.3833L8.55604 11.0607C8.85729 11.3304 8.85729 11.8011 8.55604 12.0708L7.79883 12.7482C7.55985 12.9621 7.50373 13.3142 7.66406 13.5919L8.85532 15.6553C9.01566 15.9331 9.34877 16.0604 9.65355 15.9605L10.619 15.6436C11.0031 15.5175 11.4103 15.7528 11.4934 16.1484L11.7016 17.1432C11.7674 17.4571 12.0443 17.6818 12.3651 17.6818H13.5987V21.0983C13.5987 22.2193 12.6865 23.1315 11.5655 23.1315H2.0332C0.912187 23.1315 0 22.2193 0 21.0983V2.0332C0 0.912187 0.912187 0 2.0332 0H11.5655ZM6.12169 19.02C5.74744 19.02 5.44381 19.3236 5.44381 19.6979C5.44382 20.0721 5.74744 20.3758 6.12169 20.3758H7.47701C7.85127 20.3758 8.15489 20.0721 8.1549 19.6979C8.1549 19.3236 7.85127 19.02 7.47701 19.02H6.12169Z" fill="#67B7FF"/>
</svg>
