<svg width="40" height="40" viewBox="0 0 40 40" fill="none" xmlns="http://www.w3.org/2000/svg">
<g clip-path="url(#clip0_12203_3088)">
<path d="M25 21.6667C24.08 21.6667 23.3333 22.4117 23.3333 23.3333V26.6667H3.33333V8.33333C3.33333 5.57667 5.57667 3.33333 8.33333 3.33333H18.3333C19.2533 3.33333 20 2.58833 20 1.66667C20 0.745 19.2533 0 18.3333 0H8.33333C3.73833 0 0 3.73833 0 8.33333V31.6667C0 36.2617 3.73833 40 8.33333 40H18.3333C22.9283 40 26.6667 36.2617 26.6667 31.6667V23.3333C26.6667 22.4117 25.92 21.6667 25 21.6667ZM18.3333 36.6667H8.33333C5.57667 36.6667 3.33333 34.4233 3.33333 31.6667V30H23.3333V31.6667C23.3333 34.4233 21.09 36.6667 18.3333 36.6667ZM35 0L28.3333 0.00333333C25.5767 0.00333333 23.3333 2.24667 23.3333 5.00333V15.92C23.3333 16.8267 23.8333 17.6467 24.6383 18.0633C25.44 18.4767 26.4 18.4133 27.14 17.8883C27.195 17.85 30.3383 15.0017 30.3383 15.0017H34.9983C37.755 15.0017 39.9983 12.7583 39.9983 10.0017V5C39.9983 2.24333 37.7567 0 35 0ZM36.6667 10C36.6667 10.92 35.9183 11.6667 35 11.6667H29.695C29.28 11.6667 28.8817 11.8217 28.575 12.1L26.6667 13.8333V5.00333C26.6667 4.08333 27.415 3.33333 28.3333 3.33333H35C35.92 3.33333 36.6667 4.08 36.6667 5V10ZM13.3333 15C11.0317 15 9.16667 13.135 9.16667 10.8333C9.16667 8.53167 11.0317 6.66667 13.3333 6.66667C15.635 6.66667 17.5 8.53167 17.5 10.8333C17.5 13.135 15.635 15 13.3333 15ZM13.3333 16.6667C16.2683 16.6667 18.905 18.44 19.895 21.0817C20.2183 21.9433 19.7817 22.9033 18.92 23.2267C18.08 23.5467 17.0967 23.1233 16.7733 22.25C16.2683 20.9033 14.8867 19.9983 13.335 19.9983C11.7833 19.9983 10.4 20.9033 9.89667 22.25C9.57333 23.115 8.61333 23.5483 7.75 23.2267C6.88833 22.9033 6.45167 21.9417 6.775 21.0817C7.765 18.44 10.4017 16.6667 13.3367 16.6667H13.3333ZM16.6667 33.3333C16.6667 34.255 15.92 35 15 35H11.6667C10.7467 35 10 34.255 10 33.3333C10 32.4117 10.7467 31.6667 11.6667 31.6667H15C15.92 31.6667 16.6667 32.4117 16.6667 33.3333Z" fill="url(#paint0_linear_12203_3088)"/>
</g>
<defs>
<linearGradient id="paint0_linear_12203_3088" x1="9.93336" y1="-25.4167" x2="48.9915" y2="-2.10579" gradientUnits="userSpaceOnUse">
<stop stop-color="#00A3FF"/>
<stop offset="1" stop-color="#0045FF"/>
</linearGradient>
<clipPath id="clip0_12203_3088">
<rect width="40" height="40" fill="white"/>
</clipPath>
</defs>
</svg>
