<svg width="40" height="40" viewBox="0 0 40 40" fill="none" xmlns="http://www.w3.org/2000/svg">
<path d="M21.905 29.1416L23.89 25.8333L21.905 22.525C21.4317 21.735 21.6867 20.7116 22.4767 20.2383C23.2667 19.7633 24.29 20.02 24.7633 20.81L25.835 22.595L26.9067 20.81C27.38 20.02 28.4033 19.7633 29.1933 20.2383C29.9833 20.7116 30.2383 21.735 29.765 22.525L27.78 25.8333L29.765 29.1416C30.2383 29.9316 29.9833 30.955 29.1933 31.4283C28.925 31.59 28.63 31.6666 28.3367 31.6666C27.77 31.6666 27.2183 31.3783 26.9067 30.8583L25.835 29.0733L24.7633 30.8583C24.45 31.3783 23.8983 31.6666 23.3333 31.6666C23.0417 31.6666 22.745 31.59 22.4767 31.4283C21.6867 30.955 21.4317 29.9316 21.905 29.1416ZM15 31.6666C17.7567 31.6666 20 29.4233 20 26.6666V21.6666C20 20.7466 19.2533 20 18.3333 20C17.4133 20 16.6667 20.7466 16.6667 21.6666V26.6666C16.6667 27.5866 15.9183 28.3333 15 28.3333C14.0817 28.3333 13.3333 27.5866 13.3333 26.6666V21.6666C13.3333 20.7466 12.5867 20 11.6667 20C10.7467 20 10 20.7466 10 21.6666V26.6666C10 29.4233 12.2433 31.6666 15 31.6666ZM7.5 6.66663C6.12 6.66663 5 7.78663 5 9.16663C5 10.5466 6.12 11.6666 7.5 11.6666C8.88 11.6666 10 10.5466 10 9.16663C10 7.78663 8.88 6.66663 7.5 6.66663ZM40 9.99996V30C40 34.595 36.2617 38.3333 31.6667 38.3333H8.33333C3.73833 38.3333 0 34.595 0 30V9.99996C0 5.40496 3.73833 1.66663 8.33333 1.66663H31.6667C36.2617 1.66663 40 5.40496 40 9.99996ZM36.6667 16.6666H3.33333V30C3.33333 32.7566 5.57667 35 8.33333 35H31.6667C34.4233 35 36.6667 32.7566 36.6667 30V16.6666ZM36.6667 9.99996C36.6667 7.24329 34.4233 4.99996 31.6667 4.99996H8.33333C5.57667 4.99996 3.33333 7.24329 3.33333 9.99996V13.3333H36.6667V9.99996ZM14.1667 6.66663C12.7867 6.66663 11.6667 7.78663 11.6667 9.16663C11.6667 10.5466 12.7867 11.6666 14.1667 11.6666C15.5467 11.6666 16.6667 10.5466 16.6667 9.16663C16.6667 7.78663 15.5467 6.66663 14.1667 6.66663Z" fill="url(#paint0_linear_12203_3078)"/>
<defs>
<linearGradient id="paint0_linear_12203_3078" x1="9.93378" y1="-21.632" x2="47.1353" y2="2.59027" gradientUnits="userSpaceOnUse">
<stop stop-color="#00A3FF"/>
<stop offset="1" stop-color="#0045FF"/>
</linearGradient>
</defs>
</svg>
