<svg width="40" height="40" viewBox="0 0 40 40" fill="none" xmlns="http://www.w3.org/2000/svg">
<g clip-path="url(#clip0_12203_3080)">
<path d="M35.8333 21.9383V18.0617C38.235 17.3383 40 15.1333 40 12.5C40 9.28333 37.3833 6.66667 34.1667 6.66667C32.5267 6.66667 31.05 7.35167 29.9883 8.445L25.81 5.83333C25.81 2.61833 23.1933 0 19.9767 0C16.76 0 14.1433 2.61667 14.1433 5.83333C14.1433 5.84167 14.1467 5.85 14.1467 5.86L10.0117 8.445C8.95167 7.35167 7.47333 6.66667 5.83333 6.66667C2.61667 6.66667 0 9.28333 0 12.5C0 15.1333 1.765 17.3383 4.16667 18.0617V21.9383C1.765 22.6617 0 24.8667 0 27.5C0 30.7167 2.61667 33.3333 5.83333 33.3333C7.47333 33.3333 8.95 32.6483 10.0117 31.555L14.1467 34.14C14.1467 34.1483 14.1433 34.1567 14.1433 34.1667C14.1433 37.3833 16.76 40 19.9767 40C23.1933 40 25.81 37.3833 25.81 34.1667L29.9883 31.555C31.0483 32.6483 32.5267 33.3333 34.1667 33.3333C37.3833 33.3333 40 30.7167 40 27.5C40 24.8667 38.235 22.6617 35.8333 21.9383ZM34.1667 10C35.545 10 36.6667 11.1217 36.6667 12.5C36.6667 13.8783 35.545 15 34.1667 15C32.7883 15 31.6667 13.8783 31.6667 12.5C31.6667 11.1217 32.7883 10 34.1667 10ZM19.9767 3.33333C21.355 3.33333 22.4767 4.455 22.4767 5.83333C22.4767 7.21167 21.355 8.33333 19.9767 8.33333C18.8983 8.33333 17.9867 7.64333 17.6367 6.685C17.64 6.45 17.5933 6.22 17.4933 5.99667C17.49 5.94167 17.4767 5.89 17.4767 5.83333C17.4767 4.455 18.5983 3.33333 19.9767 3.33333ZM3.33333 12.5C3.33333 11.1217 4.455 10 5.83333 10C7.21167 10 8.33333 11.1217 8.33333 12.5C8.33333 13.8783 7.21167 15 5.83333 15C4.455 15 3.33333 13.8783 3.33333 12.5ZM5.83333 30C4.455 30 3.33333 28.8783 3.33333 27.5C3.33333 26.1217 4.455 25 5.83333 25C7.21167 25 8.33333 26.1217 8.33333 27.5C8.33333 28.8783 7.21167 30 5.83333 30ZM19.9767 36.6667C18.5983 36.6667 17.4767 35.545 17.4767 34.1667C17.4767 32.7883 18.5983 31.6667 19.9767 31.6667C21.355 31.6667 22.4767 32.7883 22.4767 34.1667C22.4767 35.545 21.355 36.6667 19.9767 36.6667ZM24.7867 30.8767C23.735 29.3433 21.9717 28.3333 19.9767 28.3333C17.9817 28.3333 16.2367 29.335 15.1833 30.8567L11.5567 28.59C11.6233 28.235 11.6667 27.8733 11.6667 27.5C11.6667 24.8667 9.90167 22.6617 7.5 21.9383V18.0617C9.90167 17.3383 11.6667 15.1333 11.6667 12.5C11.6667 12.1267 11.6233 11.7633 11.5567 11.41L15.1833 9.14333C16.2367 10.665 17.99 11.6667 19.9767 11.6667C21.9633 11.6667 23.7333 10.6567 24.7867 9.12333L28.4433 11.4083C28.3767 11.7633 28.3333 12.125 28.3333 12.4983C28.3333 15.1317 30.0983 17.3367 32.5 18.06V21.9367C30.0983 22.66 28.3333 24.865 28.3333 27.4983C28.3333 27.8717 28.3767 28.235 28.4433 28.5883L24.7867 30.8733V30.8767ZM34.1667 30C32.7883 30 31.6667 28.8783 31.6667 27.5C31.6667 26.1217 32.7883 25 34.1667 25C35.545 25 36.6667 26.1217 36.6667 27.5C36.6667 28.8783 35.545 30 34.1667 30ZM21.6667 21.8467L26.6667 18.9883V22.515C26.6667 23.5317 26.1417 24.4783 25.28 25.0183L21.6667 27.2767V21.8467ZM25.5717 15.9817L20 19.165L14.4283 15.9817L18.07 13.705C19.2517 12.9667 20.75 12.9667 21.93 13.705L25.5717 15.9817ZM13.3333 18.9883L18.3333 21.8467V27.2767L14.72 25.0183C13.8567 24.4783 13.3333 23.5333 13.3333 22.515V18.9883Z" fill="url(#paint0_linear_12203_3080)"/>
</g>
<defs>
<linearGradient id="paint0_linear_12203_3080" x1="9.93378" y1="-25.4167" x2="48.9927" y2="-2.10435" gradientUnits="userSpaceOnUse">
<stop stop-color="#00A3FF"/>
<stop offset="1" stop-color="#0045FF"/>
</linearGradient>
<clipPath id="clip0_12203_3080">
<rect width="40" height="40" fill="white"/>
</clipPath>
</defs>
</svg>
