<svg width="40" height="40" viewBox="0 0 40 40" fill="none" xmlns="http://www.w3.org/2000/svg">
<path d="M35.0007 38.3333C35.0007 39.255 34.2556 40 33.334 40C32.4123 40 31.6673 39.255 31.6673 38.3333C31.6673 34.6567 28.6773 31.6667 25.0007 31.6667H15.0007C11.324 31.6667 8.33398 34.6567 8.33398 38.3333C8.33398 39.255 7.58898 40 6.66732 40C5.74565 40 5.00065 39.255 5.00065 38.3333C5.00065 32.8183 9.48565 28.3333 15.0007 28.3333H25.0007C30.5156 28.3333 35.0007 32.8183 35.0007 38.3333ZM36.6673 12.5V15.8333C36.6673 17.2117 35.5457 18.3333 34.1673 18.3333H33.249C32.829 22.0733 29.684 25 25.834 25H14.1673C10.3173 25 7.17232 22.0733 6.75232 18.3333H5.83398C4.45565 18.3333 3.33398 17.2117 3.33398 15.8333V12.5C3.33398 11.1217 4.45565 10 5.83398 10H6.75232C7.17232 6.26 10.3173 3.33333 14.1673 3.33333H18.334V1.66667C18.334 0.746667 19.079 0 20.0007 0C20.9223 0 21.6673 0.746667 21.6673 1.66667V3.33333H25.834C29.684 3.33333 32.829 6.26 33.249 10H34.1673C35.5457 10 36.6673 11.1217 36.6673 12.5ZM30.0007 10.8333C30.0007 8.535 28.1323 6.66667 25.834 6.66667H14.1673C11.869 6.66667 10.0007 8.535 10.0007 10.8333V17.5C10.0007 19.7983 11.869 21.6667 14.1673 21.6667H25.834C28.1323 21.6667 30.0007 19.7983 30.0007 17.5V10.8333ZM25.334 8.335C24.5973 8.335 24.0007 8.93167 24.0007 9.66833V18.6667C24.0007 19.4033 24.5973 20 25.334 20C26.0707 20 26.6673 19.4033 26.6673 18.6667V9.66833C26.6673 8.93167 26.0707 8.335 25.334 8.335ZM20.114 10.7067L21.7357 18.4233C21.9057 19.2367 21.2857 20 20.4557 20C19.814 20.0283 19.239 19.59 19.109 18.9583L18.979 18.3333H16.0606L15.9207 18.9717C15.789 19.5717 15.2573 20 14.6423 20C13.8107 20 13.189 19.2333 13.3623 18.42L15.0173 10.64C15.2607 9.38167 16.284 8.335 17.5557 8.335H17.559C18.8623 8.34167 19.839 9.34 20.1157 10.7067H20.114ZM18.424 15.6667L17.559 11.51L16.6457 15.6667H18.424Z" fill="url(#paint0_linear_12203_3084)"/>
<defs>
<linearGradient id="paint0_linear_12203_3084" x1="11.6121" y1="-25.4167" x2="47.0015" y2="-7.81488" gradientUnits="userSpaceOnUse">
<stop stop-color="#00A3FF"/>
<stop offset="1" stop-color="#0045FF"/>
</linearGradient>
</defs>
</svg>
