<svg width="40" height="40" viewBox="0 0 40 40" fill="none" xmlns="http://www.w3.org/2000/svg">
<g clip-path="url(#clip0_12203_3086)">
<path d="M21.6667 15.8333V7.5C21.6667 4.28333 24.2833 1.66667 27.5 1.66667H30.8517C31.6117 0.66 32.8067 0 34.1667 0C36.4683 0 38.3333 1.865 38.3333 4.16667C38.3333 6.46833 36.4683 8.33333 34.1667 8.33333C32.8083 8.33333 31.6133 7.67333 30.8517 6.66667H27.5C27.04 6.66667 26.6667 7.04167 26.6667 7.5V15.8333C26.6667 17.2133 25.5483 18.3333 24.1667 18.3333C22.785 18.3333 21.6667 17.2133 21.6667 15.8333ZM5.83333 8.33333C7.19167 8.33333 8.38667 7.67333 9.14833 6.66667H12.5C12.96 6.66667 13.3333 7.04167 13.3333 7.5V15.8333C13.3333 17.2133 14.4517 18.3333 15.8333 18.3333C17.215 18.3333 18.3333 17.2133 18.3333 15.8333V7.5C18.3333 4.28333 15.7167 1.66667 12.5 1.66667H9.14833C8.38833 0.66 7.19333 0 5.83333 0C3.53167 0 1.66667 1.865 1.66667 4.16667C1.66667 6.46833 3.53167 8.33333 5.83333 8.33333ZM37.5 11.6667C36.1183 11.6667 35 12.7867 35 14.1667V22.5C35 24.7983 33.13 26.6667 30.8333 26.6667H9.16667C6.87 26.6667 5 24.7983 5 22.5V14.1667C5 12.7867 3.88167 11.6667 2.5 11.6667C1.11833 11.6667 0 12.7867 0 14.1667V22.5C0 27.5533 4.11167 31.6667 9.16667 31.6667H17.5V35H12.5C11.1183 35 10 36.12 10 37.5C10 38.88 11.1183 40 12.5 40H27.5C28.8817 40 30 38.88 30 37.5C30 36.12 28.8817 35 27.5 35H22.5V31.6667H30.8333C35.8883 31.6667 40 27.5533 40 22.5V14.1667C40 12.7867 38.8817 11.6667 37.5 11.6667Z" fill="url(#paint0_linear_12203_3086)"/>
</g>
<defs>
<linearGradient id="paint0_linear_12203_3086" x1="9.93378" y1="-25.4167" x2="48.9927" y2="-2.10435" gradientUnits="userSpaceOnUse">
<stop stop-color="#00A3FF"/>
<stop offset="1" stop-color="#0045FF"/>
</linearGradient>
<clipPath id="clip0_12203_3086">
<rect width="40" height="40" fill="white"/>
</clipPath>
</defs>
</svg>
