<svg width="40" height="40" viewBox="0 0 40 40" fill="none" xmlns="http://www.w3.org/2000/svg">
<path d="M23.268 31.605C22.248 31.6433 21.158 31.6666 19.9996 31.6666C12.7596 31.6666 8.2013 30.765 6.40297 30.3233C5.96297 28.2933 4.99964 23.2866 4.99964 18.3333C4.99964 17.2133 5.04797 16.09 5.12964 15H36.3963C36.868 15 37.318 14.8 37.633 14.45C37.948 14.1 38.1013 13.6333 38.0546 13.165C37.5746 8.46163 36.6546 4.75163 36.6163 4.59663C36.4796 4.04329 36.068 3.59829 35.528 3.41996C35.313 3.34829 30.153 1.66663 20.0013 1.66663C9.84964 1.66663 4.6863 3.34829 4.47297 3.41996C3.93297 3.59829 3.5213 4.04329 3.38464 4.59663C3.31464 4.87663 1.66797 11.54 1.66797 18.3333C1.66797 25.1266 3.31464 31.79 3.38464 32.07C3.5213 32.6233 3.93297 33.0683 4.47297 33.2466C4.68797 33.3183 9.84797 35 19.9996 35C21.2046 35 22.3346 34.9766 23.398 34.935C24.318 34.9 25.033 34.125 24.998 33.205C24.963 32.285 24.1963 31.5333 23.268 31.605ZM6.40297 6.34329C8.20464 5.90163 12.763 4.99996 19.9996 4.99996C27.2363 4.99996 31.798 5.90163 33.5963 6.34329C33.8313 7.42663 34.2146 9.35829 34.523 11.6666H5.47964C5.7863 9.35329 6.16797 7.42496 6.40297 6.34329ZM11.6663 8.33329C11.6663 9.25496 10.9213 9.99996 9.99964 9.99996C9.07797 9.99996 8.33297 9.25496 8.33297 8.33329C8.33297 7.41163 9.07797 6.66663 9.99964 6.66663C10.9213 6.66663 11.6663 7.41163 11.6663 8.33329ZM16.6663 8.33329C16.6663 9.25496 15.9213 9.99996 14.9996 9.99996C14.078 9.99996 13.333 9.25496 13.333 8.33329C13.333 7.41163 14.078 6.66663 14.9996 6.66663C15.9213 6.66663 16.6663 7.41163 16.6663 8.33329ZM34.9996 36.3066V36.6666C34.9996 37.5883 34.2546 38.3333 33.333 38.3333C32.4113 38.3333 31.6663 37.5883 31.6663 36.6666V36.45C29.9696 35.9733 28.5396 34.7133 27.9563 33.05C27.653 32.1816 28.1113 31.23 28.9796 30.9266C29.853 30.625 30.7996 31.0833 31.103 31.95C31.378 32.74 32.253 33.3333 33.1396 33.3333C34.1646 33.3333 34.998 32.49 34.998 31.4533C35.0063 30.2966 34.143 29.58 32.838 29.58C30.3063 29.58 28.3313 27.3266 28.3313 24.795C28.3313 22.7433 29.6346 21.0016 31.4513 20.3183V20C31.4513 19.0783 32.1963 18.3333 33.118 18.3333C34.0396 18.3333 34.7846 19.0783 34.7846 20V20.3083C36.093 20.7933 37.163 21.8283 37.6463 23.195C37.9546 24.0633 37.4996 25.0166 36.633 25.3216C35.7646 25.6316 34.8113 25.1733 34.5063 24.3083C34.2996 23.725 33.7463 23.3333 33.128 23.3333C32.323 23.3333 31.6663 23.99 31.6663 24.795C31.6646 25.5516 32.1363 26.2416 33.0346 26.2416C35.9963 26.2416 38.333 28.58 38.333 31.4533C38.333 33.6683 36.9446 35.5516 34.9996 36.3066ZM10.878 18.7633C10.783 18.9116 8.5663 22.4516 8.3163 27.2716C8.28464 27.8533 8.7313 28.3483 9.3113 28.3766C9.89797 28.4266 10.3863 27.9633 10.4163 27.3816C10.428 27.165 10.4646 26.9666 10.4846 26.755H13.0496C13.0696 26.9666 13.1063 27.165 13.1163 27.3816C13.1446 27.9633 13.648 28.4083 14.2213 28.3766C14.8013 28.3466 15.2463 27.8533 15.2163 27.2716C14.9663 22.45 12.748 18.91 12.653 18.7616C12.2696 18.1566 11.263 18.155 10.8796 18.7616L10.878 18.7633ZM12.7163 24.6533H10.8196C11.088 23.485 11.4363 22.455 11.768 21.67C12.0996 22.455 12.4496 23.4833 12.7163 24.6533ZM17.5196 18.445C17.0863 18.5316 16.753 18.88 16.6846 19.3166C16.6746 19.3783 16.448 20.88 16.448 23.3316C16.448 25.7833 16.6763 27.2683 16.6863 27.33C16.753 27.7566 17.0713 28.0983 17.493 28.1933C17.528 28.2016 18.3463 28.3833 19.2996 28.3833C23.1096 28.3833 23.5513 25.5016 23.5513 23.3316C23.5513 21.1616 23.1096 18.28 19.2996 18.28C18.3596 18.28 17.553 18.4383 17.5196 18.445ZM21.448 23.3333C21.448 26.0766 20.5963 26.2833 19.2996 26.2833C19.078 26.2833 18.8646 26.27 18.6763 26.25C18.618 25.62 18.5513 24.6183 18.5513 23.3333C18.5513 22.0483 18.618 21.0483 18.6763 20.4116C18.8646 20.395 19.078 20.3833 19.2996 20.3833C20.5963 20.3833 21.448 20.5883 21.448 23.3333Z" fill="url(#paint0_linear_12203_3076)"/>
<defs>
<linearGradient id="paint0_linear_12203_3076" x1="10.7735" y1="-21.632" x2="46.5768" y2="-0.263797" gradientUnits="userSpaceOnUse">
<stop stop-color="#00A3FF"/>
<stop offset="1" stop-color="#0045FF"/>
</linearGradient>
</defs>
</svg>
