<svg width="40" height="40" viewBox="0 0 40 40" fill="none" xmlns="http://www.w3.org/2000/svg">
<path d="M5 9.16669C5 7.78669 6.12 6.66669 7.5 6.66669C8.88 6.66669 10 7.78669 10 9.16669C10 10.5467 8.88 11.6667 7.5 11.6667C6.12 11.6667 5 10.5467 5 9.16669ZM14.1667 11.6667C15.5467 11.6667 16.6667 10.5467 16.6667 9.16669C16.6667 7.78669 15.5467 6.66669 14.1667 6.66669C12.7867 6.66669 11.6667 7.78669 11.6667 9.16669C11.6667 10.5467 12.7867 11.6667 14.1667 11.6667ZM40 10V30C40 34.595 36.2617 38.3334 31.6667 38.3334H8.33333C3.73833 38.3334 0 34.595 0 30V10C0 5.40502 3.73833 1.66669 8.33333 1.66669H31.6667C36.2617 1.66669 40 5.40502 40 10ZM3.33333 10V13.3334H36.6667V10C36.6667 7.24335 34.4233 5.00002 31.6667 5.00002H8.33333C5.57667 5.00002 3.33333 7.24335 3.33333 10ZM36.6667 30V16.6667H3.33333V30C3.33333 32.7567 5.57667 35 8.33333 35H31.6667C34.4233 35 36.6667 32.7567 36.6667 30ZM17.0117 22.0117C17.6633 21.36 17.6633 20.3067 17.0117 19.655C16.36 19.0034 15.3067 19.0034 14.655 19.655L11.02 23.29C9.56667 24.7434 9.56667 27.1067 11.0517 28.59L14.6867 32.0417C15.3517 32.6767 16.4083 32.65 17.0417 31.9817C17.6767 31.315 17.6483 30.26 16.9817 29.6267L13.3783 26.2034C13.225 26.05 13.225 25.8 13.3783 25.6467L17.0133 22.0117H17.0117ZM25.345 19.655C24.6933 19.0034 23.64 19.0034 22.9883 19.655C22.3367 20.3067 22.3367 21.36 22.9883 22.0117L26.6233 25.6467C26.7767 25.8 26.7767 26.05 26.6417 26.185L23.0433 29.6734C22.3833 30.3134 22.3667 31.37 23.0083 32.03C23.65 32.6917 24.705 32.7067 25.365 32.065L28.9817 28.5584C30.435 27.105 30.435 24.7417 28.9817 23.2884L25.3467 19.6534L25.345 19.655Z" fill="url(#paint0_linear_12202_3071)"/>
<defs>
<linearGradient id="paint0_linear_12202_3071" x1="9.93378" y1="-21.6319" x2="47.1353" y2="2.59034" gradientUnits="userSpaceOnUse">
<stop stop-color="#00A3FF"/>
<stop offset="1" stop-color="#0045FF"/>
</linearGradient>
</defs>
</svg>
