<svg width="34" height="34" viewBox="0 0 34 34" fill="none" xmlns="http://www.w3.org/2000/svg">
<rect width="34" height="34" rx="17" fill="white"/>
<path fill-rule="evenodd" clip-rule="evenodd" d="M13.75 10L23.125 10C23.2908 10 23.4497 10.0658 23.5669 10.1831C23.6842 10.3003 23.75 10.4592 23.75 10.625V20C23.75 20.3452 23.4702 20.625 23.125 20.625C22.7798 20.625 22.5 20.3452 22.5 20V12.1339L11.0669 23.5669C10.8229 23.811 10.4271 23.811 10.1831 23.5669C9.93898 23.3229 9.93898 22.9271 10.1831 22.6831L21.6161 11.25L13.75 11.25C13.4048 11.25 13.125 10.9702 13.125 10.625C13.125 10.2798 13.4048 10 13.75 10Z" fill="#363636"/>
</svg>
