<svg width="42" height="42" viewBox="0 0 42 42" fill="none" xmlns="http://www.w3.org/2000/svg">
<path d="M21.5266 0H3.36251C1.50544 0 0 1.678 0 3.74793V23.6806C0 25.7506 1.50544 27.4286 3.36251 27.4286H21.5266C23.3837 27.4286 24.8891 25.7506 24.8891 23.6806V3.74793C24.8891 1.678 23.3837 0 21.5266 0Z" fill="#72EBCE"/>
<path d="M39.4724 0H31.3046C29.9088 0 28.7773 1.18701 28.7773 2.65127V24.7773C28.7773 26.2416 29.9088 27.4286 31.3046 27.4286H39.4724C40.8682 27.4286 41.9997 26.2416 41.9997 24.7773V2.65127C41.9997 1.18701 40.8682 0 39.4724 0Z" fill="#46DCB8"/>
<path d="M0 34.1884L0 38.9565C0 40.6374 1.23646 42 2.7617 42H39.0435C40.5688 42 41.8052 40.6374 41.8052 38.9565V34.1884C41.8052 32.5075 40.5688 31.1449 39.0435 31.1449H2.7617C1.23646 31.1449 0 32.5075 0 34.1884Z" fill="#34B294"/>
</svg>
