<svg width="42" height="42" viewBox="0 0 42 42" fill="none" xmlns="http://www.w3.org/2000/svg">
<g clip-path="url(#clip0_1717_1253)">
<path d="M42.0005 15.7417V38.2362C42.0005 39.624 41.2392 40.8945 40.016 41.5507C39.4595 41.85 38.8487 41.997 38.2397 41.9987C37.5117 41.9987 36.7855 41.787 36.1572 41.3687L29.2203 36.7417H19.2505C16.713 36.7417 14.4432 35.6375 12.8438 33.9067L13.8395 33.2417H22.7505C29.5037 33.2417 35.0005 27.745 35.0005 20.9917V8.74175C35.0005 8.20275 34.9532 7.67775 34.8867 7.15625C38.931 7.92625 42.0005 11.477 42.0005 15.7417Z" fill="#A52FDB"/>
</g>
<g clip-path="url(#clip1_1717_1253)">
<path d="M22.75 -0.0078125H8.75C3.92525 -0.0078125 0 3.91744 0 8.74219V31.2367C0 32.6244 0.76125 33.8949 1.9845 34.5512C2.541 34.8504 3.15175 34.9974 3.76075 34.9974C4.48875 34.9974 5.215 34.7857 5.845 34.3674L12.7802 29.7422H22.75C27.5747 29.7422 31.5 25.8169 31.5 20.9922V8.74219C31.5 3.91744 27.5747 -0.0078125 22.75 -0.0078125Z" fill="#BB93FF"/>
</g>
<defs>
<clipPath id="clip0_1717_1253">
<rect width="42" height="42" fill="white"/>
</clipPath>
<clipPath id="clip1_1717_1253">
<rect width="42" height="42" fill="white"/>
</clipPath>
</defs>
</svg>
