<svg width="42" height="42" viewBox="0 0 42 42" fill="none" xmlns="http://www.w3.org/2000/svg">
<path d="M37.1718 0C34.8277 0 32.7811 1.8375 32.3438 4.27C31.9064 1.8375 29.8948 0 27.5507 0C24.8918 0 22.7402 2.3625 22.7402 5.285C22.7402 9.45 28.163 14.4025 30.8744 16.5725C31.749 17.2725 32.991 17.2725 33.8656 16.5725C36.5595 14.4025 41.9997 9.45 41.9997 5.285C41.9997 2.3625 39.8481 0 37.1892 0L37.1718 0Z" fill="#00CFA9"/>
<path d="M12.2449 19.25H6.9971C3.1312 19.25 0 16.1175 0 12.25V7C0 3.1325 3.1312 0 6.9971 0H12.2449C16.1108 0 19.242 3.1325 19.242 7V12.25C19.242 16.1175 16.1108 19.25 12.2449 19.25ZM34.9855 42H29.7377C25.8718 42 22.7406 38.8675 22.7406 35V29.75C22.7406 25.8825 25.8718 22.75 29.7377 22.75H34.9855C38.8514 22.75 41.9826 25.8825 41.9826 29.75V35C41.9826 38.8675 38.8514 42 34.9855 42ZM12.2449 42H6.9971C3.1312 42 0 38.8675 0 35V29.75C0 25.8825 3.1312 22.75 6.9971 22.75H12.2449C16.1108 22.75 19.242 25.8825 19.242 29.75V35C19.242 38.8675 16.1108 42 12.2449 42Z" fill="#40EECE"/>
</svg>
