<svg xmlns="http://www.w3.org/2000/svg" width="26" height="26" viewBox="0 0 26 26" fill="none"><g clip-path="url(#clip0_1562_1362)"><path d="M15.9644 16.4684C15.8648 16.1796 15.6109 15.9701 15.3078 15.9288L10.8978 15.3186L8.72573 11.1339C8.44566 10.596 7.56256 10.596 7.28322 11.1339L5.11149 15.3186L0.701483 15.9288C0.398015 15.9701 0.144108 16.1796 0.044496 16.4684C-0.0554415 16.758 0.015896 17.0794 0.229015 17.2992L3.70042 20.8808L2.76694 25.0092C2.69593 25.3242 2.81772 25.6511 3.07756 25.8424C3.33821 26.0352 3.68612 26.055 3.96546 25.8923L8.00456 23.5644L12.0437 25.8923C12.1698 25.9653 12.3098 26.0011 12.4495 26.0011C12.6193 26.0011 12.7887 25.9479 12.9316 25.8424C13.1914 25.6511 13.3132 25.3242 13.2422 25.0092L12.3091 20.8808L15.7801 17.2992C15.9931 17.0794 16.0643 16.7581 15.9644 16.4684Z" fill="white"></path><path d="M25.9318 4.96766C25.8322 4.67809 25.5783 4.46935 25.2752 4.42735L21.6099 3.91954L19.8031 0.438623C19.5238 -0.0993328 18.6399 -0.0993328 18.3606 0.438623L16.5539 3.91954L12.8886 4.42735C12.5855 4.46944 12.3316 4.67809 12.232 4.96766C12.1321 5.2565 12.2034 5.57785 12.4165 5.79763L15.3047 8.77707L14.5303 12.2024C14.4593 12.5174 14.5811 12.8443 14.8409 13.0355C15.1016 13.2283 15.4495 13.2474 15.7288 13.0855L19.082 11.1527L22.4348 13.0855C22.561 13.1585 22.701 13.1942 22.8406 13.1942C23.0105 13.1942 23.1799 13.1411 23.3227 13.0355C23.5825 12.8443 23.7043 12.5174 23.6333 12.2024L22.8589 8.77707L25.7471 5.79763C25.9606 5.57785 26.0318 5.2565 25.9318 4.96766Z" fill="#00FFF2"></path><path d="M5.52321 7.40971C5.20106 7.40971 4.90945 7.21926 4.77978 6.92489L4.61874 6.5591C4.51677 6.32664 4.33306 6.14334 4.10182 6.04097L3.73522 5.87993C3.44045 5.75058 3.25 5.45857 3.25 5.13649C3.25 4.81442 3.44045 4.52233 3.73522 4.39306L4.10142 4.23202C4.33314 4.12964 4.51677 3.94634 4.61833 3.7147L4.77978 3.3481C4.90953 3.05373 5.20114 2.86328 5.52321 2.86328C5.84529 2.86328 6.13697 3.05373 6.26665 3.3481L6.42769 3.71389C6.52966 3.94634 6.71336 4.12964 6.9446 4.23121L7.3112 4.39306C7.60597 4.52241 7.79642 4.81442 7.79642 5.13649C7.79642 5.45857 7.60597 5.75066 7.3112 5.87993L6.94541 6.04097C6.71336 6.14334 6.52966 6.32664 6.42809 6.55829L6.26665 6.92489C6.13689 7.21926 5.84529 7.40971 5.52321 7.40971Z" fill="#00FFF2"></path><path d="M20.9822 21.648C20.66 21.648 20.3684 21.4575 20.2388 21.1632L20.0777 20.7974C19.9753 20.5649 19.7916 20.3816 19.5604 20.2793L19.1942 20.1182C18.8994 19.9889 18.709 19.6968 18.709 19.3748C18.709 19.0527 18.8994 18.7606 19.1942 18.6313L19.56 18.4703C19.7917 18.3679 19.9753 18.1846 20.0777 17.953L20.2388 17.5864C20.3685 17.292 20.6601 17.1016 20.9822 17.1016C21.3044 17.1016 21.5964 17.292 21.726 17.5872L21.8868 17.953C21.9887 18.1847 22.1724 18.3679 22.4037 18.4703L22.7703 18.6313C23.065 18.7607 23.2555 19.0527 23.2555 19.3748C23.2555 19.6968 23.065 19.9889 22.7703 20.1182L22.4041 20.2793C22.1723 20.3816 21.9887 20.5649 21.8863 20.7966L21.726 21.1624C21.5963 21.4575 21.3043 21.648 20.9822 21.648Z" fill="#00FFFF"></path></g><defs><clipPath id="clip0_1562_1362"><rect width="26" height="26" fill="white"></rect></clipPath></defs></svg>