<svg width="46" height="42" viewBox="0 0 46 42" fill="none" xmlns="http://www.w3.org/2000/svg">
<path d="M0 15.2734V32.4552C0.00303136 34.9859 1.00968 37.4121 2.79914 39.2015C4.5886 40.991 7.01476 41.9976 9.54544 42.0007H36.2727C38.8034 41.9976 41.2295 40.991 43.019 39.2015C44.8084 37.4121 45.8151 34.9859 45.8181 32.4552V15.2734H0ZM26.7272 34.3643H11.4545C10.9482 34.3643 10.4626 34.1632 10.1046 33.8052C9.74658 33.4471 9.54544 32.9616 9.54544 32.4552C9.54544 31.9489 9.74658 31.4633 10.1046 31.1053C10.4626 30.7473 10.9482 30.5461 11.4545 30.5461H26.7272C27.2336 30.5461 27.7191 30.7473 28.0772 31.1053C28.4352 31.4633 28.6363 31.9489 28.6363 32.4552C28.6363 32.9616 28.4352 33.4471 28.0772 33.8052C27.7191 34.1632 27.2336 34.3643 26.7272 34.3643ZM34.3636 26.728H11.4545C10.9482 26.728 10.4626 26.5268 10.1046 26.1688C9.74658 25.8108 9.54544 25.3252 9.54544 24.8189C9.54544 24.3126 9.74658 23.827 10.1046 23.469C10.4626 23.1109 10.9482 22.9098 11.4545 22.9098H34.3636C34.8699 22.9098 35.3555 23.1109 35.7135 23.469C36.0715 23.827 36.2727 24.3126 36.2727 24.8189C36.2727 25.3252 36.0715 25.8108 35.7135 26.1688C35.3555 26.5268 34.8699 26.728 34.3636 26.728Z" fill="#DB9F2F"/>
<path d="M45.8181 11.4545V9.54544C45.8151 7.01476 44.8084 4.5886 43.019 2.79914C41.2295 1.00968 38.8034 0.00303136 36.2727 0H9.54544C7.01476 0.00303136 4.5886 1.00968 2.79914 2.79914C1.00968 4.5886 0.00303136 7.01476 0 9.54544L0 11.4545H45.8181ZM19.0909 3.81818C19.4685 3.81818 19.8376 3.93014 20.1515 4.13992C20.4655 4.34969 20.7102 4.64785 20.8547 4.99669C20.9991 5.34553 21.037 5.72938 20.9633 6.09971C20.8896 6.47004 20.7078 6.8102 20.4408 7.07719C20.1738 7.34419 19.8337 7.52601 19.4633 7.59967C19.093 7.67334 18.7091 7.63553 18.3603 7.49103C18.0115 7.34654 17.7133 7.10185 17.5035 6.7879C17.2938 6.47395 17.1818 6.10485 17.1818 5.72727C17.1818 5.22094 17.3829 4.73536 17.741 4.37734C18.099 4.01931 18.5846 3.81818 19.0909 3.81818ZM13.3636 3.81818C13.7412 3.81818 14.1103 3.93014 14.4243 4.13992C14.7382 4.34969 14.9829 4.64785 15.1274 4.99669C15.2719 5.34553 15.3097 5.72938 15.236 6.09971C15.1624 6.47004 14.9805 6.8102 14.7135 7.07719C14.4466 7.34419 14.1064 7.52601 13.7361 7.59967C13.3657 7.67334 12.9819 7.63553 12.633 7.49103C12.2842 7.34654 11.986 7.10185 11.7763 6.7879C11.5665 6.47395 11.4545 6.10485 11.4545 5.72727C11.4545 5.22094 11.6557 4.73536 12.0137 4.37734C12.3717 4.01931 12.8573 3.81818 13.3636 3.81818ZM7.63635 3.81818C8.01394 3.81818 8.38304 3.93014 8.69699 4.13992C9.01093 4.34969 9.25563 4.64785 9.40012 4.99669C9.54462 5.34553 9.58242 5.72938 9.50876 6.09971C9.4351 6.47004 9.25327 6.8102 8.98628 7.07719C8.71929 7.34419 8.37913 7.52601 8.0088 7.59967C7.63847 7.67334 7.25462 7.63553 6.90578 7.49103C6.55694 7.34654 6.25878 7.10185 6.04901 6.7879C5.83923 6.47395 5.72727 6.10485 5.72727 5.72727C5.72727 5.22094 5.9284 4.73536 6.28642 4.37734C6.64445 4.01931 7.13003 3.81818 7.63635 3.81818Z" fill="#FFD693"/>
</svg>
