<svg width="46" height="42" viewBox="0 0 46 42" fill="none" xmlns="http://www.w3.org/2000/svg">
<path d="M0 15.2734V32.4553C0.00303136 34.9859 1.00968 37.4121 2.79915 39.2016C4.58861 40.991 7.01477 41.9977 9.54545 42.0007H36.2727C38.8034 41.9977 41.2296 40.991 43.019 39.2016C44.8085 37.4121 45.8152 34.9859 45.8182 32.4553V15.2734H0ZM26.7273 34.3643H11.4545C10.9482 34.3643 10.4626 34.1632 10.1046 33.8052C9.74659 33.4472 9.54545 32.9616 9.54545 32.4553C9.54545 31.9489 9.74659 31.4633 10.1046 31.1053C10.4626 30.7473 10.9482 30.5462 11.4545 30.5462H26.7273C27.2336 30.5462 27.7192 30.7473 28.0772 31.1053C28.4352 31.4633 28.6364 31.9489 28.6364 32.4553C28.6364 32.9616 28.4352 33.4472 28.0772 33.8052C27.7192 34.1632 27.2336 34.3643 26.7273 34.3643ZM34.3636 26.728H11.4545C10.9482 26.728 10.4626 26.5268 10.1046 26.1688C9.74659 25.8108 9.54545 25.3252 9.54545 24.8189C9.54545 24.3126 9.74659 23.827 10.1046 23.469C10.4626 23.1109 10.9482 22.9098 11.4545 22.9098H34.3636C34.87 22.9098 35.3555 23.1109 35.7136 23.469C36.0716 23.827 36.2727 24.3126 36.2727 24.8189C36.2727 25.3252 36.0716 25.8108 35.7136 26.1688C35.3555 26.5268 34.87 26.728 34.3636 26.728Z" fill="#5C57F5"/>
<path d="M45.8182 11.4545V9.54545C45.8152 7.01477 44.8085 4.58861 43.019 2.79915C41.2296 1.00968 38.8034 0.00303136 36.2727 0H9.54545C7.01477 0.00303136 4.58861 1.00968 2.79915 2.79915C1.00968 4.58861 0.00303136 7.01477 0 9.54545L0 11.4545H45.8182ZM19.0909 3.81818C19.4685 3.81818 19.8376 3.93015 20.1515 4.13992C20.4655 4.3497 20.7102 4.64785 20.8547 4.9967C20.9992 5.34554 21.037 5.72939 20.9633 6.09972C20.8897 6.47005 20.7078 6.81021 20.4408 7.0772C20.1739 7.34419 19.8337 7.52602 19.4634 7.59968C19.093 7.67334 18.7092 7.63554 18.3603 7.49104C18.0115 7.34655 17.7133 7.10186 17.5036 6.78791C17.2938 6.47396 17.1818 6.10486 17.1818 5.72727C17.1818 5.22095 17.383 4.73537 17.741 4.37734C18.099 4.01932 18.5846 3.81818 19.0909 3.81818ZM13.3636 3.81818C13.7412 3.81818 14.1103 3.93015 14.4243 4.13992C14.7382 4.3497 14.9829 4.64785 15.1274 4.9967C15.2719 5.34554 15.3097 5.72939 15.236 6.09972C15.1624 6.47005 14.9806 6.81021 14.7136 7.0772C14.4466 7.34419 14.1064 7.52602 13.7361 7.59968C13.3658 7.67334 12.9819 7.63554 12.6331 7.49104C12.2842 7.34655 11.9861 7.10186 11.7763 6.78791C11.5665 6.47396 11.4545 6.10486 11.4545 5.72727C11.4545 5.22095 11.6557 4.73537 12.0137 4.37734C12.3717 4.01932 12.8573 3.81818 13.3636 3.81818ZM7.63636 3.81818C8.01395 3.81818 8.38305 3.93015 8.697 4.13992C9.01095 4.3497 9.25564 4.64785 9.40013 4.9967C9.54463 5.34554 9.58244 5.72939 9.50877 6.09972C9.43511 6.47005 9.25329 6.81021 8.9863 7.0772C8.7193 7.34419 8.37914 7.52602 8.00881 7.59968C7.63848 7.67334 7.25463 7.63554 6.90579 7.49104C6.55695 7.34655 6.25879 7.10186 6.04901 6.78791C5.83924 6.47396 5.72727 6.10486 5.72727 5.72727C5.72727 5.22095 5.92841 4.73537 6.28643 4.37734C6.64446 4.01932 7.13004 3.81818 7.63636 3.81818Z" fill="#5EA9FF"/>
</svg>
